#N canvas 156 125 561 396 12;
#X text 114 25 audio;
#X text 352 15 arg 1 : time in ms;
#X obj 28 160 tabwrite~ \$0-array;
#N canvas 202 172 450 300 capture 0;
#X obj 41 12 inlet;
#X text 90 12 bang;
#X obj 81 139 delay \$1, f 16;
#X msg 122 90 stop;
#X msg 176 201 stop;
#X obj 40 250 outlet;
#X obj 81 168 t b b b, f 14;
#X obj 161 253 outlet;
#X text 212 254 play;
#X obj 190 105 r \$0-chunk;
#X obj 41 46 t b b b b, f 18;
#X obj 164 72 s \$0-finish;
#X connect 0 0 10 0;
#X connect 2 0 6 0;
#X connect 3 0 2 0;
#X connect 4 0 5 0;
#X connect 6 1 7 0;
#X connect 6 2 4 0;
#X connect 9 0 2 1;
#X connect 10 0 5 0;
#X connect 10 1 2 0;
#X connect 10 2 3 0;
#X connect 10 3 11 0;
#X restore 95 86 pd capture;
#N canvas 0 25 735 300 messages 0;
#X obj 37 37 inlet;
#X obj 37 195 outlet;
#X obj 358 139 s \$0-chunk;
#X obj 300 170 s \$0-decLength;
#X obj 251 138 s \$0-decLevel;
#X obj 193 169 s \$0-del;
#X obj 97 163 s \$0-aLevel;
#X obj 134 135 s \$0-aLength;
#X obj 447 157 s \$0-stop;
#X obj 37 70 route bang aLevel aLength del decLevel decLength chunk
stop speed, f 69;
#X obj 483 119 s \$0-speed;
#X connect 0 0 9 0;
#X connect 9 0 1 0;
#X connect 9 1 6 0;
#X connect 9 2 7 0;
#X connect 9 3 5 0;
#X connect 9 4 4 0;
#X connect 9 5 3 0;
#X connect 9 6 2 0;
#X connect 9 7 8 0;
#X connect 9 8 10 0;
#X restore 95 56 pd messages;
#X obj 28 24 inlet~ fwd;
#X obj 182 282 outlet~;
#N canvas 0 25 848 571 play 0;
#X obj 26 16 inlet;
#X text 74 17 bang;
#X obj 26 40 f 1;
#X obj 60 41 + 1;
#X obj 60 65 == 1;
#X obj 26 114 t a a, f 25;
#X obj 26 138 == 0;
#X obj 26 297 outlet~;
#X obj 216 52 r \$0-finish;
#X obj 216 106 0;
#X obj 216 130 t a a;
#X obj 306 52 r \$0-stop;
#N canvas 0 25 670 696 play-chunk 0;
#X obj 27 449 tabread4~ \$0-array;
#X obj 26 341 phasor~;
#X obj 27 533 *~, f 21;
#X obj 171 391 -~ 0.5;
#X obj 171 415 *~ 0.5;
#X obj 171 442 cos~;
#X text 151 198 calculate hz for ms chunk;
#X obj 26 185 f \$1;
#X obj 26 254 swap 1000;
#X obj 26 278 /, f 9;
#X obj 147 279 0;
#X obj 27 557 *~, f 33;
#X obj 255 437 vline~;
#X obj 255 461 sqrt~;
#X obj 255 407 pack 0 3;
#X obj 26 151 t b b f, f 31;
#X obj 26 94 1;
#X obj 25 46 sel 1 0, f 73;
#X obj 256 269 0;
#X obj 25 13 inlet;
#X text 76 12 on or off;
#X obj 27 621 outlet~;
#X msg 412 134 stop;
#X obj 380 219 switch~;
#X obj 380 188 0;
#X obj 380 164 del 3;
#X obj 25 70 t b b b, f 15;
#X obj 348 188 1;
#X obj 356 98 t b b b;
#X obj 27 581 hip~ 5;
#X obj 26 209 t a a, f 8;
#X obj 121 314 * 44.1;
#X obj 26 389 +~ 1;
#X obj 121 338 - 2;
#X obj 26 366 *~, f 14;
#X obj 139 221 r \$0-speed;
#X obj 139 245 t b a;
#X obj 171 500 clip~ 0 1;
#X obj 171 466 *~ 10;
#X obj 71 179 r \$0-chunk;
#X obj 26 302 * \$7, f 10;
#X connect 0 0 2 0;
#X connect 1 0 3 0;
#X connect 1 0 34 0;
#X connect 2 0 11 0;
#X connect 3 0 4 0;
#X connect 4 0 5 0;
#X connect 5 0 38 0;
#X connect 7 0 30 0;
#X connect 8 0 9 0;
#X connect 8 1 9 1;
#X connect 9 0 40 0;
#X connect 10 0 1 1;
#X connect 11 0 29 0;
#X connect 12 0 13 0;
#X connect 13 0 11 1;
#X connect 14 0 12 0;
#X connect 15 0 7 0;
#X connect 15 1 10 0;
#X connect 15 2 14 0;
#X connect 16 0 15 0;
#X connect 17 0 26 0;
#X connect 17 1 28 0;
#X connect 18 0 14 0;
#X connect 19 0 17 0;
#X connect 22 0 25 0;
#X connect 24 0 23 0;
#X connect 25 0 24 0;
#X connect 26 0 16 0;
#X connect 26 1 27 0;
#X connect 26 2 22 0;
#X connect 27 0 23 0;
#X connect 28 0 18 0;
#X connect 28 1 25 0;
#X connect 28 2 22 0;
#X connect 29 0 21 0;
#X connect 30 0 8 0;
#X connect 30 1 31 0;
#X connect 31 0 33 0;
#X connect 32 0 0 0;
#X connect 33 0 34 1;
#X connect 34 0 32 0;
#X connect 35 0 36 0;
#X connect 36 0 40 0;
#X connect 36 1 40 1;
#X connect 37 0 2 1;
#X connect 38 0 37 0;
#X connect 39 0 7 1;
#X connect 40 0 1 0;
#X restore 196 216 pd play-chunk;
#N canvas 0 25 670 696 play-chunk 0;
#X obj 27 449 tabread4~ \$0-array;
#X obj 26 341 phasor~;
#X obj 27 533 *~, f 21;
#X obj 171 391 -~ 0.5;
#X obj 171 415 *~ 0.5;
#X obj 171 442 cos~;
#X text 151 198 calculate hz for ms chunk;
#X obj 26 185 f \$1;
#X obj 26 254 swap 1000;
#X obj 26 278 /, f 9;
#X obj 147 279 0;
#X obj 27 557 *~, f 33;
#X obj 255 437 vline~;
#X obj 255 461 sqrt~;
#X obj 255 407 pack 0 3;
#X obj 26 151 t b b f, f 31;
#X obj 26 94 1;
#X obj 25 46 sel 1 0, f 73;
#X obj 256 269 0;
#X obj 25 13 inlet;
#X text 76 12 on or off;
#X obj 27 621 outlet~;
#X msg 412 134 stop;
#X obj 380 219 switch~;
#X obj 380 188 0;
#X obj 380 164 del 3;
#X obj 25 70 t b b b, f 15;
#X obj 348 188 1;
#X obj 356 98 t b b b;
#X obj 27 581 hip~ 5;
#X obj 26 209 t a a, f 8;
#X obj 121 314 * 44.1;
#X obj 26 389 +~ 1;
#X obj 121 338 - 2;
#X obj 26 366 *~, f 14;
#X obj 139 221 r \$0-speed;
#X obj 139 245 t b a;
#X obj 171 500 clip~ 0 1;
#X obj 171 466 *~ 10;
#X obj 71 179 r \$0-chunk;
#X obj 26 302 * \$7, f 10;
#X connect 0 0 2 0;
#X connect 1 0 3 0;
#X connect 1 0 34 0;
#X connect 2 0 11 0;
#X connect 3 0 4 0;
#X connect 4 0 5 0;
#X connect 5 0 38 0;
#X connect 7 0 30 0;
#X connect 8 0 9 0;
#X connect 8 1 9 1;
#X connect 9 0 40 0;
#X connect 10 0 1 1;
#X connect 11 0 29 0;
#X connect 12 0 13 0;
#X connect 13 0 11 1;
#X connect 14 0 12 0;
#X connect 15 0 7 0;
#X connect 15 1 10 0;
#X connect 15 2 14 0;
#X connect 16 0 15 0;
#X connect 17 0 26 0;
#X connect 17 1 28 0;
#X connect 18 0 14 0;
#X connect 19 0 17 0;
#X connect 22 0 25 0;
#X connect 24 0 23 0;
#X connect 25 0 24 0;
#X connect 26 0 16 0;
#X connect 26 1 27 0;
#X connect 26 2 22 0;
#X connect 27 0 23 0;
#X connect 28 0 18 0;
#X connect 28 1 25 0;
#X connect 28 2 22 0;
#X connect 29 0 21 0;
#X connect 30 0 8 0;
#X connect 30 1 31 0;
#X connect 31 0 33 0;
#X connect 32 0 0 0;
#X connect 33 0 34 1;
#X connect 34 0 32 0;
#X connect 35 0 36 0;
#X connect 36 0 40 0;
#X connect 36 1 40 1;
#X connect 37 0 2 1;
#X connect 38 0 37 0;
#X connect 39 0 7 1;
#X connect 40 0 1 0;
#X restore 26 221 pd play-chunk;
#X connect 0 0 2 0;
#X connect 2 0 3 0;
#X connect 2 0 5 0;
#X connect 3 0 4 0;
#X connect 4 0 2 1;
#X connect 5 0 6 0;
#X connect 5 1 12 0;
#X connect 6 0 13 0;
#X connect 8 0 9 0;
#X connect 9 0 10 0;
#X connect 10 0 13 0;
#X connect 10 1 12 0;
#X connect 11 0 9 0;
#X connect 12 0 7 0;
#X connect 13 0 7 0;
#X restore 182 185 pd play;
#X obj 182 145 t b b, f 11;
#N canvas 561 52 879 616 envelope 0;
#X obj 31 444 outlet~;
#X obj 31 15 inlet;
#X obj 31 363 vline~;
#X obj 31 387 *~;
#X obj 31 221 clip 0 1;
#X obj 31 141 f \$2;
#X obj 31 245 pack 0 \$3, f 10;
#X obj 217 123 f \$3;
#X obj 217 147 + \$4, f 7;
#X obj 217 171 t a b;
#X obj 254 198 f \$5;
#X obj 217 291 pack 0 0 \$6, f 17;
#X obj 254 252 clip 0 1;
#X obj 56 114 r \$0-aLevel;
#X obj 98 212 r \$0-aLength;
#X obj 263 120 r \$0-del;
#X obj 242 87 r \$0-aLength;
#X obj 279 166 r \$0-decLevel;
#X obj 333 256 r \$0-decLength;
#X obj 31 46 t b b b, f 55;
#X obj 479 166 f \$3;
#X obj 479 190 + \$4, f 7;
#X obj 525 163 r \$0-del;
#X obj 504 130 r \$0-aLength;
#X obj 479 214 + \$6, f 10;
#X obj 546 188 r \$0-decLength;
#X text 560 213 total time;
#X obj 479 321 delay;
#X msg 525 290 stop;
#X obj 479 250 t b a b;
#X obj 479 365 s \$0-finish;
#X obj 563 255 r \$0-stop;
#X obj 31 165 sqrt;
#X obj 254 222 sqrt;
#X msg 217 320 0 0 \, \$2 \$3 \$1;
#X connect 1 0 19 0;
#X connect 2 0 3 0;
#X connect 2 0 3 1;
#X connect 3 0 0 0;
#X connect 4 0 6 0;
#X connect 5 0 32 0;
#X connect 6 0 2 0;
#X connect 7 0 8 0;
#X connect 8 0 9 0;
#X connect 9 0 11 0;
#X connect 9 1 10 0;
#X connect 10 0 33 0;
#X connect 11 0 34 0;
#X connect 12 0 11 1;
#X connect 13 0 5 1;
#X connect 14 0 6 1;
#X connect 15 0 8 1;
#X connect 16 0 7 1;
#X connect 17 0 10 1;
#X connect 18 0 11 2;
#X connect 19 0 7 0;
#X connect 19 1 5 0;
#X connect 19 2 20 0;
#X connect 20 0 21 0;
#X connect 21 0 24 0;
#X connect 22 0 21 1;
#X connect 23 0 20 1;
#X connect 24 0 29 0;
#X connect 25 0 24 1;
#X connect 27 0 30 0;
#X connect 28 0 27 0;
#X connect 29 0 27 0;
#X connect 29 1 27 1;
#X connect 29 2 28 0;
#X connect 31 0 28 0;
#X connect 32 0 4 0;
#X connect 33 0 12 0;
#X connect 34 0 2 0;
#X restore 269 186 pd envelope;
#X obj 182 249 *~, f 13;
#X text 353 44 arg 2 : att level;
#X text 353 64 arg 3 : att length;
#X text 354 84 arg 4: delay;
#X text 354 108 arg 5 : decay level;
#X text 355 127 arg 6 : decay length;
#X obj 349 288 array define \$0-array 88200;
#X text 355 157 arg 7 : playback speed;
#X connect 3 0 2 0;
#X connect 3 1 8 0;
#X connect 4 0 3 0;
#X connect 5 0 2 0;
#X connect 5 1 4 0;
#X connect 7 0 10 0;
#X connect 8 0 7 0;
#X connect 8 1 9 0;
#X connect 9 0 10 1;
#X connect 10 0 6 0;
