#N canvas 366 195 878 568 12;
#X obj 37 17 inlet~;
#X text 47 110 Kick;
#X obj 31 373 *~;
#X obj 181 373 *~;
#X obj 371 373 *~;
#X obj 628 374 *~;
#X obj 359 478 outlet~;
#X obj 32 138 bp~ \$1 5;
#X obj 32 168 bp~ \$1 5;
#X obj 540 21 inlet;
#X obj 540 45 route gain1 gain2 gain3 gain4;
#X obj 138 26 inlet~;
#X obj 205 27 inlet~;
#X obj 275 26 inlet~;
#X obj 342 27 inlet~;
#X obj 376 136 bp~ \$3 5;
#X obj 376 166 bp~ \$3 5;
#X obj 185 212 *~ 3;
#X obj 185 168 bp~ \$2 6;
#X obj 185 138 bp~ \$2 6;
#X obj 32 212 *~ 3;
#X obj 629 136 bp~ \$4 6;
#X obj 628 166 bp~ \$4 6;
#X obj 376 210 *~ 2;
#X obj 629 210 *~ 2;
#X connect 0 0 7 0;
#X connect 0 0 15 0;
#X connect 0 0 19 0;
#X connect 0 0 21 0;
#X connect 2 0 6 0;
#X connect 3 0 6 0;
#X connect 4 0 6 0;
#X connect 5 0 6 0;
#X connect 7 0 8 0;
#X connect 8 0 20 0;
#X connect 9 0 10 0;
#X connect 10 0 20 1;
#X connect 10 1 17 1;
#X connect 10 2 23 1;
#X connect 10 3 24 1;
#X connect 11 0 2 1;
#X connect 12 0 3 1;
#X connect 13 0 4 1;
#X connect 14 0 5 1;
#X connect 15 0 16 0;
#X connect 16 0 23 0;
#X connect 17 0 3 0;
#X connect 18 0 17 0;
#X connect 19 0 18 0;
#X connect 20 0 2 0;
#X connect 21 0 22 0;
#X connect 22 0 24 0;
#X connect 23 0 4 0;
#X connect 24 0 5 0;
