#N canvas 20 75 909 576 12;
#X obj 20 15 inlet;
#X text 69 13 Velocity;
#X obj 384 15 inlet;
#X text 433 13 messages;
#X text 522 37 Decay;
#X text 563 35 Sustain1;
#X text 622 35 SusTime1;
#X text 560 50 Sustain2;
#X text 619 50 SusTime2;
#X obj 27 454 vline~;
#X obj 27 488 *~;
#N canvas 369 160 633 511 attack 0;
#X obj 296 275 pack 1 0;
#X obj 125 37 inlet;
#X obj 125 360 outlet;
#X obj 296 174 t b b;
#X obj 296 205 v \$0-att1;
#X obj 372 205 v \$0-attT1;
#X obj 125 179 v \$0-att2;
#X obj 159 211 v \$0-attT2;
#X obj 125 61 t b b;
#X obj 125 279 pack 1 0 0;
#X obj 192 248 v \$0-attT1;
#X obj 125 152 t b b b;
#X connect 0 0 2 0;
#X connect 1 0 8 0;
#X connect 3 0 4 0;
#X connect 3 1 5 0;
#X connect 4 0 0 0;
#X connect 5 0 0 1;
#X connect 6 0 9 0;
#X connect 7 0 9 1;
#X connect 8 0 11 0;
#X connect 8 1 3 0;
#X connect 9 0 2 0;
#X connect 10 0 9 2;
#X connect 11 0 6 0;
#X connect 11 1 7 0;
#X connect 11 2 10 0;
#X restore 202 290 pd attack;
#N canvas 150 175 961 530 decay 0;
#X obj 145 164 v \$0-sus1;
#X obj 145 334 pack 1 0 0, f 13;
#X obj 189 191 v \$0-dec;
#X obj 145 34 inlet;
#X obj 145 358 outlet;
#X obj 374 192 v \$0-dec;
#X obj 374 309 +;
#X obj 354 391 del;
#X msg 519 230 stop;
#X obj 519 164 r \$0-new-note;
#X obj 145 119 t b b b b, f 15;
#X obj 354 425 outlet;
#X text 407 427 trigger sustain;
#X obj 235 257 v \$0-attT1;
#X obj 261 279 v \$0-attT2;
#X obj 234 308 +;
#X obj 235 223 t b b;
#X obj 431 260 v \$0-attT1;
#X obj 457 282 v \$0-attT2;
#X obj 430 311 +;
#X obj 431 226 t b b;
#X obj 354 163 t b b b b, f 18;
#X connect 0 0 1 0;
#X connect 1 0 4 0;
#X connect 2 0 1 1;
#X connect 3 0 10 0;
#X connect 5 0 6 0;
#X connect 6 0 7 1;
#X connect 7 0 11 0;
#X connect 8 0 7 0;
#X connect 9 0 8 0;
#X connect 10 0 0 0;
#X connect 10 1 2 0;
#X connect 10 2 16 0;
#X connect 10 3 21 0;
#X connect 13 0 15 0;
#X connect 14 0 15 1;
#X connect 15 0 1 2;
#X connect 16 0 13 0;
#X connect 16 1 14 0;
#X connect 17 0 19 0;
#X connect 18 0 19 1;
#X connect 19 0 6 1;
#X connect 20 0 17 0;
#X connect 20 1 18 0;
#X connect 21 0 7 0;
#X connect 21 1 5 0;
#X connect 21 2 20 0;
#X connect 21 3 8 0;
#X restore 23 288 pd decay;
#N canvas 124 171 964 578 sustain-loop 0;
#X obj 23 17 inlet;
#X obj 20 519 outlet;
#X obj 248 262 v \$0-susT1;
#X obj 280 288 v \$0-susT2;
#X obj 46 97 spigot 0;
#X obj 23 41 t b b b;
#X obj 99 69 v \$0-loop?;
#X obj 193 14 r \$0-note-off;
#X obj 244 37 r \$0-new-note;
#X obj 107 205 spigot;
#X obj 141 145 1;
#X obj 45 175 r \$0-sus-loop;
#X obj 248 234 t b b;
#X obj 248 328 +;
#X obj 171 145 0;
#X obj 225 200 t b b b;
#X msg 325 318 stop;
#X obj 218 90 t b b, f 28;
#X obj 240 380 delay;
#X obj 20 437 t b b;
#N canvas 208 233 450 300 sus2 0;
#X obj 13 5 inlet;
#X obj 20 98 v \$0-sus2;
#X obj 20 162 pack 0 0;
#X obj 20 61 t b b;
#X obj 99 113 v \$0-susT2;
#X text 30 40 go to sus 2 in sus2 time;
#X obj 20 186 outlet;
#X connect 0 0 3 0;
#X connect 1 0 2 0;
#X connect 2 0 6 0;
#X connect 3 0 1 0;
#X connect 3 1 4 0;
#X connect 4 0 2 1;
#X restore 83 471 pd sus2;
#N canvas 208 233 792 450 sus1 0;
#X obj 53 96 t b b b, f 20;
#X obj 53 197 pack 0 0 0;
#X obj 53 133 v \$0-sus1;
#X obj 124 135 v \$0-susT1;
#X text 60 67 go to sus1 in sus1 time to make loop;
#X obj 214 147 v \$0-susT2;
#X obj 44 28 inlet;
#X obj 53 221 outlet;
#X connect 0 0 2 0;
#X connect 0 1 3 0;
#X connect 0 2 5 0;
#X connect 1 0 7 0;
#X connect 2 0 1 0;
#X connect 3 0 1 1;
#X connect 5 0 1 2;
#X connect 6 0 0 0;
#X restore 20 469 pd sus1;
#X obj 240 403 t b b;
#X obj 273 437 s \$0-sus-loop;
#X obj 35 215 t b b;
#X connect 0 0 5 0;
#X connect 2 0 13 0;
#X connect 3 0 13 1;
#X connect 4 0 10 0;
#X connect 5 0 24 0;
#X connect 5 1 4 0;
#X connect 5 2 6 0;
#X connect 6 0 4 1;
#X connect 7 0 17 0;
#X connect 8 0 17 0;
#X connect 9 0 15 0;
#X connect 10 0 9 1;
#X connect 11 0 24 0;
#X connect 12 0 2 0;
#X connect 12 1 3 0;
#X connect 13 0 18 1;
#X connect 14 0 9 1;
#X connect 15 0 18 0;
#X connect 15 1 12 0;
#X connect 15 2 16 0;
#X connect 16 0 18 0;
#X connect 17 0 14 0;
#X connect 17 1 16 0;
#X connect 18 0 22 0;
#X connect 19 0 21 0;
#X connect 19 1 20 0;
#X connect 20 0 1 0;
#X connect 21 0 1 0;
#X connect 22 0 19 0;
#X connect 22 1 23 0;
#X connect 24 0 19 0;
#X connect 24 1 9 0;
#X restore 76 331 pd sustain-loop;
#X obj 78 144 s \$0-note-off;
#X obj 136 119 s \$0-note-on;
#X obj 168 94 s \$0-new-note;
#X obj 202 320 s \$0-2-vline;
#X obj 27 512 outlet~;
#N canvas 179 204 1149 363 messages 0;
#X obj 37 37 inlet;
#X obj 203 186 v \$0-att1;
#X obj 203 156 sqrt;
#N canvas 515 302 924 407 list-to-params 0;
#X obj 23 18 inlet;
#X obj 46 185 v \$0-att1;
#X obj 46 155 sqrt;
#X obj 214 178 v \$0-dec;
#X obj 286 185 v \$0-sus1;
#X obj 292 217 v \$0-susT1;
#X obj 414 217 v \$0-susT2;
#X obj 379 181 v \$0-sus2;
#X obj 464 183 v \$0-rel1;
#X obj 512 223 v \$0-relT1;
#X obj 543 182 v \$0-rel2;
#X obj 645 226 v \$0-relT2;
#X obj 291 155 sqrt;
#X obj 389 152 sqrt;
#X obj 473 155 sqrt;
#X obj 549 156 sqrt;
#X obj 132 180 v \$0-att2;
#X obj 129 151 sqrt;
#X obj 71 217 v \$0-attT1;
#X obj 171 214 v \$0-attT2;
#X obj 46 121 unpack 0 0 0 0 0 0 0 0 0 0 0 0 0 0, f 91;
#X obj 661 164 v \$0-loop?;
#X connect 0 0 20 0;
#X connect 2 0 1 0;
#X connect 12 0 4 0;
#X connect 13 0 7 0;
#X connect 14 0 8 0;
#X connect 15 0 10 0;
#X connect 17 0 16 0;
#X connect 20 0 2 0;
#X connect 20 1 18 0;
#X connect 20 2 17 0;
#X connect 20 3 19 0;
#X connect 20 4 3 0;
#X connect 20 5 12 0;
#X connect 20 6 5 0;
#X connect 20 7 13 0;
#X connect 20 8 6 0;
#X connect 20 9 14 0;
#X connect 20 10 9 0;
#X connect 20 11 15 0;
#X connect 20 12 11 0;
#X connect 20 13 21 0;
#X restore 36 100 pd list-to-params;
#X obj 37 61 route list;
#X obj 203 122 route att1 attT1 att2 attT2 dec sus1 susT1 sus2 susT2
rel1 relT1 rel2 relT2 loop, f 91;
#X obj 371 179 v \$0-dec;
#X obj 443 186 v \$0-sus1;
#X obj 449 218 v \$0-susT1;
#X obj 571 218 v \$0-susT2;
#X obj 536 182 v \$0-sus2;
#X obj 621 184 v \$0-rel1;
#X obj 669 224 v \$0-relT1;
#X obj 700 183 v \$0-rel2;
#X obj 802 227 v \$0-relT2;
#X obj 448 156 sqrt;
#X obj 546 153 sqrt;
#X obj 630 156 sqrt;
#X obj 706 157 sqrt;
#X obj 289 181 v \$0-att2;
#X obj 286 152 sqrt;
#X obj 228 218 v \$0-attT1;
#X obj 328 215 v \$0-attT2;
#X obj 818 165 v \$0-loop?;
#X connect 0 0 4 0;
#X connect 2 0 1 0;
#X connect 4 0 3 0;
#X connect 4 1 5 0;
#X connect 5 0 2 0;
#X connect 5 1 21 0;
#X connect 5 2 20 0;
#X connect 5 3 22 0;
#X connect 5 4 6 0;
#X connect 5 5 15 0;
#X connect 5 6 8 0;
#X connect 5 7 16 0;
#X connect 5 8 9 0;
#X connect 5 9 17 0;
#X connect 5 10 12 0;
#X connect 5 11 18 0;
#X connect 5 12 14 0;
#X connect 5 13 23 0;
#X connect 15 0 7 0;
#X connect 16 0 10 0;
#X connect 17 0 11 0;
#X connect 18 0 13 0;
#X connect 20 0 19 0;
#X restore 384 39 pd messages;
#X text 698 39 release;
#X obj 76 355 s \$0-2-vline;
#N canvas 237 262 941 453 release 0;
#X obj 31 13 inlet;
#X obj 223 133 v \$0-rel1;
#X obj 223 193 pack 0 0;
#X obj 276 165 v \$0-relT1;
#X obj 223 104 t b b, f 7;
#X obj 98 179 v \$0-relT1;
#X obj 31 207 pack 0 0 0;
#X obj 64 147 v \$0-relT2;
#X obj 31 117 v \$0-rel2;
#X obj 31 86 t b b b;
#X obj 31 283 outlet;
#X obj 410 217 +;
#X obj 390 299 del;
#X msg 555 138 stop;
#X obj 555 72 r \$0-new-note;
#X obj 390 333 outlet;
#X text 443 335 trigger sustain;
#X obj 390 71 t b b b b, f 18;
#X obj 412 113 v \$0-relT1;
#X obj 455 140 v \$0-relT2;
#X obj 31 37 t b b b, f 28;
#X connect 0 0 20 0;
#X connect 1 0 2 0;
#X connect 2 0 10 0;
#X connect 3 0 2 1;
#X connect 4 0 1 0;
#X connect 4 1 3 0;
#X connect 5 0 6 2;
#X connect 6 0 10 0;
#X connect 7 0 6 1;
#X connect 8 0 6 0;
#X connect 9 0 8 0;
#X connect 9 1 7 0;
#X connect 9 2 5 0;
#X connect 11 0 12 1;
#X connect 12 0 15 0;
#X connect 13 0 12 0;
#X connect 14 0 13 0;
#X connect 17 0 12 0;
#X connect 17 1 18 0;
#X connect 17 2 19 0;
#X connect 17 3 13 0;
#X connect 18 0 11 0;
#X connect 19 0 11 1;
#X connect 20 0 9 0;
#X connect 20 1 4 0;
#X connect 20 2 17 0;
#X restore 302 222 pd release;
#X f 23;
#X obj 27 417 r \$0-2-vline;
#X obj 302 190 r \$0-note-off;
#X obj 302 246 s \$0-2-vline;
#X obj 23 223 r \$0-note-on;
#X obj 246 12 inlet;
#X obj 20 39 sel -1 0, f 17;
#X obj 20 91 s \$0-duck;
#X obj 246 36 s \$0-vel;
#X text 290 16 scale;
#X obj 23 247 t b b, f 11;
#X obj 136 65 t b b;
#X text 471 51 Attack2;
#X text 468 37 Attack1;
#X obj 482 456 outlet;
#X text 536 456 report when done;
#X obj 503 353 r \$0-new-note;
#X obj 503 377 1;
#X obj 471 373 0;
#X connect 0 0 28 0;
#X connect 2 0 19 0;
#X connect 9 0 10 0;
#X connect 9 0 10 1;
#X connect 10 0 18 0;
#X connect 11 0 17 0;
#X connect 12 0 17 0;
#X connect 12 1 13 0;
#X connect 13 0 21 0;
#X connect 22 0 25 0;
#X connect 22 1 40 0;
#X connect 23 0 9 0;
#X connect 24 0 22 0;
#X connect 26 0 32 0;
#X connect 27 0 30 0;
#X connect 28 0 29 0;
#X connect 28 1 14 0;
#X connect 28 2 33 0;
#X connect 32 0 12 0;
#X connect 32 1 11 0;
#X connect 33 0 15 0;
#X connect 33 1 16 0;
#X connect 38 0 39 0;
#X connect 39 0 36 0;
#X connect 40 0 36 0;
