#N canvas 556 101 884 709 12;
#X obj 26 9 inlet;
#X obj 26 109 unpack;
#N canvas 8 85 1175 691 get-f 0;
#X text 107 12 bang;
#X obj 521 254 r \$0-bpm;
#X msg 521 284 bpm \$1;
#X obj 96 177 f;
#X obj 139 180 + 1;
#X obj 147 149 0;
#X obj 96 149 until;
#X obj 421 589 outlet~;
#X obj 29 92 route bang;
#X text 451 12 bang;
#X obj 420 171 f;
#X obj 463 174 + 1;
#X obj 471 143 0;
#X obj 420 143 until;
#X obj 353 86 route bang;
#X obj 29 13 r \$0-vel;
#X obj 353 7 r \$0-off;
#X obj 421 393 j-line-tempo~ 2;
#X obj 96 121 t a b, f 14;
#X obj 420 115 t a b, f 14;
#X obj 523 589 outlet;
#X obj 523 421 t b b, f 11;
#X obj 353 31 t b b, f 43;
#X obj 29 37 t b b, f 29;
#X obj 29 68 text size \$1-f-tab;
#X obj 353 62 text size \$1-f-Off-tab;
#X obj 420 204 text get \$1-f-Off-tab;
#X obj 96 230 text get \$1-f-tab;
#X obj 707 215 r \$0-duck;
#X msg 707 269 direct 0 3;
#N canvas 562 120 539 665 sustain-loop 0;
#X obj 206 334 f;
#X obj 249 337 + 1;
#X obj 257 306 0;
#X obj 206 306 until;
#X obj 139 249 route bang;
#X obj 206 278 t a b, f 7;
#X obj 140 15 inlet;
#X obj 138 177 t b;
#X obj 206 441 outlet;
#X obj 139 225 text size \$1-s-A-tab;
#X obj 206 387 text get \$1-s-A-tab;
#X connect 0 0 1 0;
#X connect 0 0 10 0;
#X connect 1 0 0 1;
#X connect 2 0 0 1;
#X connect 3 0 0 0;
#X connect 4 1 5 0;
#X connect 5 0 3 0;
#X connect 5 1 2 0;
#X connect 6 0 7 0;
#X connect 7 0 9 0;
#X connect 9 0 4 0;
#X connect 10 0 8 0;
#X restore 596 523 pd sustain-loop;
#X obj 226 79 1;
#X obj 707 239 t b b, f 18;
#X obj 596 464 spigot 0;
#X obj 596 488 spigot \$2;
#X obj 596 547 spigot 0, f 22;
#X obj 668 389 0;
#X obj 668 420 t a a;
#X connect 1 0 2 0;
#X connect 2 0 17 1;
#X connect 3 0 4 0;
#X connect 3 0 27 0;
#X connect 4 0 3 1;
#X connect 5 0 3 1;
#X connect 6 0 3 0;
#X connect 8 1 18 0;
#X connect 10 0 11 0;
#X connect 10 0 26 0;
#X connect 11 0 10 1;
#X connect 12 0 10 1;
#X connect 13 0 10 0;
#X connect 14 1 19 0;
#X connect 15 0 23 0;
#X connect 16 0 22 0;
#X connect 17 0 7 0;
#X connect 17 1 21 0;
#X connect 18 0 6 0;
#X connect 18 1 5 0;
#X connect 19 0 13 0;
#X connect 19 1 12 0;
#X connect 21 0 20 0;
#X connect 21 1 33 0;
#X connect 22 0 25 0;
#X connect 22 1 36 0;
#X connect 23 0 24 0;
#X connect 23 1 31 0;
#X connect 24 0 8 0;
#X connect 25 0 14 0;
#X connect 26 0 17 0;
#X connect 27 0 17 0;
#X connect 28 0 32 0;
#X connect 29 0 17 1;
#X connect 30 0 35 0;
#X connect 31 0 33 1;
#X connect 32 0 29 0;
#X connect 32 1 36 0;
#X connect 33 0 34 0;
#X connect 34 0 30 0;
#X connect 36 0 37 0;
#X connect 37 0 35 1;
#X connect 37 1 33 1;
#X restore 375 123 pd get-f;
#X obj 358 445 osc~;
#X obj 358 336 +~;
#X obj 376 301 *~;
#X obj 394 246 pack 0 10;
#X obj 394 270 line~;
#X obj 358 499 *~, f 10;
#X obj 32 399 s \$0-duck;
#X obj 97 169 s \$0-vel;
#X obj 358 553 outlet~;
#X obj 358 469 *~ 0.7;
#N canvas 512 311 833 478 messages 0;
#X obj 37 37 inlet;
#X obj 37 157 s \$0-bpm;
#X obj 67 123 s \$0-fDepth;
#X obj 131 123 s \$0-fVel;
#X obj 205 124 s \$0-aVel;
#X obj 324 222 outlet;
#X obj 37 70 route bpm freqDepth ampVel freqVel note noteDuck;
#X obj 317 106 t b;
#X obj 317 137 s \$0-noteDuck;
#X connect 0 0 6 0;
#X connect 6 0 1 0;
#X connect 6 1 2 0;
#X connect 6 2 3 0;
#X connect 6 3 4 0;
#X connect 6 4 5 0;
#X connect 6 5 7 0;
#X connect 7 0 8 0;
#X restore 26 43 pd messages;
#X obj 375 147 *~ 2;
#X obj 375 171 -~ 1;
#X obj 32 369 t b;
#X obj 358 400 mtof~;
#X obj 394 209 r \$0-fDepth;
#N canvas 159 101 1175 691 get-a 0;
#X text 137 32 bang;
#X obj 552 290 r \$0-bpm;
#X msg 552 320 bpm \$1;
#X obj 126 197 f;
#X obj 169 200 + 1;
#X obj 177 169 0;
#X obj 126 169 until;
#X obj 451 609 outlet~;
#X obj 59 112 route bang;
#X text 481 32 bang;
#X obj 450 191 f;
#X obj 493 194 + 1;
#X obj 501 163 0;
#X obj 450 163 until;
#X obj 383 106 route bang;
#X obj 59 33 r \$0-vel;
#X obj 383 27 r \$0-off;
#X obj 451 413 j-line-tempo~ 2;
#X obj 126 141 t a b, f 7;
#X obj 450 135 t a b, f 8;
#X obj 780 224 r \$0-duck;
#X obj 553 609 outlet;
#X msg 780 278 direct 0 3;
#N canvas 562 120 539 665 sustain-loop 0;
#X obj 206 334 f;
#X obj 249 337 + 1;
#X obj 257 306 0;
#X obj 206 306 until;
#X obj 139 249 route bang;
#X obj 206 278 t a b, f 7;
#X obj 140 15 inlet;
#X obj 138 177 t b;
#X obj 206 441 outlet;
#X obj 139 225 text size \$1-s-A-tab;
#X obj 206 387 text get \$1-s-A-tab;
#X connect 0 0 1 0;
#X connect 0 0 10 0;
#X connect 1 0 0 1;
#X connect 2 0 0 1;
#X connect 3 0 0 0;
#X connect 4 1 5 0;
#X connect 5 0 3 0;
#X connect 5 1 2 0;
#X connect 6 0 7 0;
#X connect 7 0 9 0;
#X connect 9 0 4 0;
#X connect 10 0 8 0;
#X restore 627 529 pd sustain-loop;
#X obj 553 441 t b b, f 11;
#X obj 259 109 1;
#X obj 383 51 t b b, f 43;
#X obj 780 248 t b b, f 18;
#X obj 59 57 t b b, f 29;
#X obj 450 224 text get \$1-a-Off-tab;
#X obj 383 82 text size \$1-a-Off-tab;
#X obj 627 470 spigot 0;
#X obj 59 88 text size a-tab-\$1;
#X obj 126 250 text get a-tab-\$1;
#X obj 627 494 spigot \$2;
#X obj 627 553 spigot 0, f 22;
#X obj 699 395 0;
#X obj 699 426 t a a;
#X connect 1 0 2 0;
#X connect 2 0 17 1;
#X connect 3 0 4 0;
#X connect 3 0 33 0;
#X connect 4 0 3 1;
#X connect 5 0 3 1;
#X connect 6 0 3 0;
#X connect 8 1 18 0;
#X connect 10 0 11 0;
#X connect 10 0 29 0;
#X connect 11 0 10 1;
#X connect 12 0 10 1;
#X connect 13 0 10 0;
#X connect 14 1 19 0;
#X connect 15 0 28 0;
#X connect 16 0 26 0;
#X connect 17 0 7 0;
#X connect 17 1 24 0;
#X connect 18 0 6 0;
#X connect 18 1 5 0;
#X connect 19 0 13 0;
#X connect 19 1 12 0;
#X connect 20 0 27 0;
#X connect 22 0 17 1;
#X connect 23 0 35 0;
#X connect 24 0 21 0;
#X connect 24 1 31 0;
#X connect 25 0 37 0;
#X connect 26 0 30 0;
#X connect 26 1 36 0;
#X connect 27 0 22 0;
#X connect 27 1 36 0;
#X connect 28 0 32 0;
#X connect 28 1 25 0;
#X connect 29 0 17 0;
#X connect 30 0 14 0;
#X connect 31 0 34 0;
#X connect 32 0 8 0;
#X connect 33 0 17 0;
#X connect 34 0 23 0;
#X connect 35 0 17 0;
#X connect 36 0 37 0;
#X connect 37 0 35 1;
#X connect 37 1 31 1;
#X restore 425 463 pd get-a;
#X text 283 42 global frequency;
#X obj 234 42 inlet~;
#X obj 65 139 sel 0;
#X obj 32 338 r \$0-noteDuck;
#X text 80 8 notes and messages;
#X obj 65 203 s \$0-off;
#X connect 0 0 13 0;
#X connect 1 1 22 0;
#X connect 2 0 14 0;
#X connect 3 0 12 0;
#X connect 4 0 17 0;
#X connect 5 0 4 1;
#X connect 6 0 7 0;
#X connect 7 0 5 1;
#X connect 8 0 11 0;
#X connect 12 0 8 0;
#X connect 13 0 1 0;
#X connect 14 0 15 0;
#X connect 15 0 5 0;
#X connect 16 0 9 0;
#X connect 17 0 3 0;
#X connect 18 0 6 0;
#X connect 19 0 8 1;
#X connect 21 0 4 0;
#X connect 22 0 25 0;
#X connect 22 1 10 0;
#X connect 23 0 16 0;
