#N canvas 22 25 1130 820 12;
#X text -105 -83 mono bass synth \, inspired by the UK;
#X obj 125 23 inlet;
#X text 179 20 note pair;
#X obj 180 548 r \$0-L;
#X obj 426 546 r \$0-R;
#X obj 427 799 outlet~;
#X obj 137 415 t a b, f 13;
#X obj 225 485 s \$0-R;
#X obj 137 457 s \$0-L;
#X obj 460 415 t a b, f 13;
#X obj 460 457 s \$0-R;
#X obj 547 486 s \$0-L;
#X obj 569 72 inlet;
#X text 626 68 messages;
#N canvas 549 314 891 400 messages 0;
#X obj 37 37 inlet;
#N canvas 149 237 450 300 set-aEnv 0;
#X obj 21 9 inlet;
#X obj 21 33 route new, f 21;
#X msg 21 81 clear;
#X obj 21 57 t b b;
#X msg 77 75 setNo 0;
#X obj 162 74 t a b;
#X obj 186 106 j-loop 1e+07 1;
#X obj 20 223 text define a-tab-\$0;
#X obj 157 169 text set a-tab-\$0;
#X connect 0 0 1 0;
#X connect 1 0 3 0;
#X connect 1 1 5 0;
#X connect 2 0 7 0;
#X connect 3 0 2 0;
#X connect 3 1 4 0;
#X connect 4 0 6 0;
#X connect 5 0 8 0;
#X connect 5 1 6 0;
#X connect 6 0 8 1;
#X restore 37 188 pd set-aEnv;
#N canvas 149 237 450 300 set-aEnvOff 0;
#X obj 21 9 inlet;
#X obj 21 33 route new, f 21;
#X msg 21 81 clear;
#X obj 21 57 t b b;
#X msg 77 75 setNo 0;
#X obj 162 74 t a b;
#X obj 20 223 text define \$0-a-Off-tab;
#X obj 157 170 text set \$0-a-Off-tab;
#X obj 186 106 j-loop 1e+07 1;
#X connect 0 0 1 0;
#X connect 1 0 3 0;
#X connect 1 1 5 0;
#X connect 2 0 6 0;
#X connect 3 0 2 0;
#X connect 3 1 4 0;
#X connect 4 0 8 0;
#X connect 5 0 7 0;
#X connect 5 1 8 0;
#X connect 8 0 7 1;
#X restore 94 164 pd set-aEnvOff;
#N canvas 149 237 450 300 set-fEnv 0;
#X obj 21 9 inlet;
#X obj 21 33 route new, f 21;
#X msg 21 81 clear;
#X obj 21 57 t b b;
#X msg 77 75 setNo 0;
#X obj 162 74 t a b;
#X obj 157 170 text set \$0-f-tab;
#X obj 20 223 text define \$0-f-tab;
#X obj 186 106 j-loop 1e+07 1;
#X connect 0 0 1 0;
#X connect 1 0 3 0;
#X connect 1 1 5 0;
#X connect 2 0 7 0;
#X connect 3 0 2 0;
#X connect 3 1 4 0;
#X connect 4 0 8 0;
#X connect 5 0 6 0;
#X connect 5 1 8 0;
#X connect 8 0 6 1;
#X restore 188 192 pd set-fEnv;
#N canvas 149 237 450 300 set-fEnvOff 0;
#X obj 21 9 inlet;
#X obj 21 33 route new, f 21;
#X msg 21 81 clear;
#X obj 21 57 t b b;
#X msg 77 75 setNo 0;
#X obj 162 74 t a b;
#X obj 157 170 text set \$0-f-Off-tab;
#X obj 20 223 text define \$0-f-Off-tab;
#X obj 186 106 j-loop 1e+07 1;
#X connect 0 0 1 0;
#X connect 1 0 3 0;
#X connect 1 1 5 0;
#X connect 2 0 7 0;
#X connect 3 0 2 0;
#X connect 3 1 4 0;
#X connect 4 0 8 0;
#X connect 5 0 6 0;
#X connect 5 1 8 0;
#X connect 8 0 6 1;
#X restore 246 155 pd set-fEnvOff;
#X obj 815 311 outlet;
#N canvas 149 237 450 300 set-freq-sus 0;
#X obj 21 9 inlet;
#X obj 21 33 route new, f 21;
#X msg 21 81 clear;
#X obj 21 57 t b b;
#X msg 77 75 setNo 0;
#X obj 162 74 t a b;
#X obj 186 106 j-loop 1e+07 1;
#X obj 20 222 text define \$0-s-F-tab;
#X obj 157 170 text set \$0-s-F-tab;
#X connect 0 0 1 0;
#X connect 1 0 3 0;
#X connect 1 1 5 0;
#X connect 2 0 7 0;
#X connect 3 0 2 0;
#X connect 3 1 4 0;
#X connect 4 0 6 0;
#X connect 5 0 8 0;
#X connect 5 1 6 0;
#X connect 6 0 8 1;
#X restore 515 162 pd set-freq-sus;
#N canvas 149 237 450 300 set-amp-sus 0;
#X obj 21 9 inlet;
#X obj 21 33 route new, f 21;
#X msg 21 81 clear;
#X obj 21 57 t b b;
#X msg 77 75 setNo 0;
#X obj 162 74 t a b;
#X obj 186 106 j-loop 1e+07 1;
#X obj 20 223 text define \$0-s-A-tab;
#X obj 157 170 text set \$0-s-A-tab;
#X connect 0 0 1 0;
#X connect 1 0 3 0;
#X connect 1 1 5 0;
#X connect 2 0 7 0;
#X connect 3 0 2 0;
#X connect 3 1 4 0;
#X connect 4 0 6 0;
#X connect 5 0 8 0;
#X connect 5 1 6 0;
#X connect 6 0 8 1;
#X restore 442 190 pd set-amp-sus;
#X text 301 24 the tables;
#X obj 624 115 s \$0-port;
#X obj 36 66 route ampEnv ampEnvOff freqEnv freqEnvOff ampSus freqSusnew
portamento, f 97;
#X connect 0 0 10 0;
#X connect 10 0 1 0;
#X connect 10 1 2 0;
#X connect 10 2 3 0;
#X connect 10 3 4 0;
#X connect 10 4 7 0;
#X connect 10 5 6 0;
#X connect 10 6 9 0;
#X connect 10 7 5 0;
#X restore 569 101 pd messages;
#X obj 568 137 t a a, f 12;
#X obj 568 203 s \$0-L;
#X obj 649 203 s \$0-R;
#N canvas 377 95 1063 651 portomento 0;
#X obj 98 457 outlet~;
#X obj 98 14 inlet;
#X text 147 8 note;
#X obj 98 38 route note;
#X obj 98 62 unpack;
#X obj 591 180 r \$0-port;
#X obj 524 288 vline~;
#X obj 524 317 *~;
#X obj 524 378 +~, f 16;
#X obj 524 219 f, f 10;
#X msg 524 258 0 0 \, 1 \$1 0;
#X obj 524 344 *~, f 10;
#X obj 669 209 snapshot~;
#X obj 701 262 swap;
#X obj 701 293 -;
#X obj 669 233 t a a;
#X obj 524 133 t b b a, f 28;
#X obj 94 224 lop~ 2;
#X obj 127 172 r \$0-port;
#X connect 1 0 3 0;
#X connect 3 0 4 0;
#X connect 4 0 17 0;
#X connect 5 0 9 1;
#X connect 6 0 7 0;
#X connect 6 0 7 1;
#X connect 7 0 11 0;
#X connect 8 0 12 0;
#X connect 9 0 10 0;
#X connect 10 0 6 0;
#X connect 11 0 8 0;
#X connect 12 0 15 0;
#X connect 13 0 14 0;
#X connect 13 1 14 1;
#X connect 14 0 11 1;
#X connect 15 0 8 1;
#X connect 15 1 13 0;
#X connect 16 0 9 0;
#X connect 16 1 12 0;
#X connect 16 2 13 1;
#X connect 17 0 0 0;
#X connect 18 0 17 1;
#X restore 458 636 pd portomento;
#X f 27;
#X obj 180 585 t a a;
#X obj 426 570 t a a;
#X text 768 53 Arg1 = sustain off/on (0/1);
#X obj 425 681 j-bass-synth-voice~ \$0 \$1, f 36;
#X obj 180 692 j-bass-synth-voice~ \$0 \$1;
#X msg 225 450 noteDuck bang;
#X msg 548 451 noteDuck bang;
#X obj 125 85 unpack;
#X obj 196 207 list store;
#X obj 164 114 sel 0;
#X obj 137 351 list trim;
#X obj 137 297 list prepend note;
#X obj 137 321 list prepend, f 20;
#X obj 345 219 f;
#X obj 378 220 + 1;
#X obj 378 244 == 1;
#X obj 196 144 t b b, f 21;
#X obj 196 231 t a a;
#N canvas 462 135 450 300 check-on-note 0;
#X obj 255 25 inlet;
#X obj 51 16 inlet;
#X text 91 16 check;
#X obj 62 272 outlet;
#X obj 255 49 unpack;
#X obj 62 167 ==;
#X obj 62 191 sel 1;
#X obj 53 128 unpack;
#X obj 51 90 list store;
#X obj 191 133 r \$0-store-note;
#X obj 64 226 list store;
#X obj 51 40 t b;
#X connect 0 0 4 0;
#X connect 1 0 11 0;
#X connect 4 0 5 1;
#X connect 5 0 6 0;
#X connect 6 0 10 0;
#X connect 7 0 5 0;
#X connect 8 0 7 0;
#X connect 9 0 8 1;
#X connect 9 0 10 1;
#X connect 10 0 3 0;
#X connect 11 0 8 0;
#X restore 119 263 pd check-on-note;
#X obj 277 91 s \$0-store-note;
#X obj 126 53 t a a, f 22;
#X obj 228 180 r \$0-store-note;
#X obj 137 378 route 0 1, f 93;
#X connect 1 0 39 0;
#X connect 3 0 19 0;
#X connect 4 0 20 0;
#X connect 6 0 8 0;
#X connect 6 1 24 0;
#X connect 9 0 10 0;
#X connect 9 1 25 0;
#X connect 12 0 14 0;
#X connect 14 0 15 0;
#X connect 15 0 16 0;
#X connect 15 1 17 0;
#X connect 18 0 22 1;
#X connect 18 0 23 1;
#X connect 19 0 23 0;
#X connect 19 1 18 0;
#X connect 20 0 22 0;
#X connect 20 1 18 0;
#X connect 22 0 5 0;
#X connect 23 0 5 0;
#X connect 24 0 7 0;
#X connect 25 0 11 0;
#X connect 26 1 28 0;
#X connect 27 0 36 0;
#X connect 28 0 37 0;
#X connect 28 1 35 0;
#X connect 29 0 41 0;
#X connect 30 0 31 0;
#X connect 31 0 29 0;
#X connect 32 0 33 0;
#X connect 32 0 31 1;
#X connect 33 0 34 0;
#X connect 34 0 32 1;
#X connect 35 0 27 0;
#X connect 35 1 32 0;
#X connect 36 0 30 0;
#X connect 36 1 37 1;
#X connect 37 0 30 0;
#X connect 39 0 26 0;
#X connect 39 1 38 0;
#X connect 40 0 27 1;
#X connect 41 0 6 0;
#X connect 41 1 9 0;
