#N canvas 208 233 450 300 12;
#X obj 41 25 inlet~;
#X obj 111 28 inlet;
#X obj 111 52 t a a;
#X obj 219 31 inlet;
#X obj 167 73 t b a;
#X obj 126 135 t a a;
#X obj 41 235 outlet~;
#X obj 126 109 +;
#X obj 41 49 hip~;
#X obj 41 73 hip~;
#X obj 41 97 hip~;
#X obj 41 141 lop~;
#X obj 41 187 lop~;
#X obj 41 211 lop~;
#X connect 0 0 8 0;
#X connect 1 0 2 0;
#X connect 2 0 8 1;
#X connect 2 0 9 1;
#X connect 2 0 10 1;
#X connect 2 1 7 0;
#X connect 3 0 4 0;
#X connect 4 0 7 0;
#X connect 4 1 7 1;
#X connect 5 0 11 1;
#X connect 5 0 12 1;
#X connect 5 1 13 1;
#X connect 7 0 5 0;
#X connect 8 0 9 0;
#X connect 9 0 10 0;
#X connect 10 0 11 0;
#X connect 11 0 12 0;
#X connect 12 0 13 0;
#X connect 13 0 6 0;
