#N canvas 127 25 1053 803 12;
#X obj 13 12 inlet;
#X text 62 13 midi notes;
#N canvas 0 25 831 300 messages 0;
#X obj 37 37 inlet;
#X obj 37 85 s \$0-tpose;
#X obj 129 87 s \$0-att;
#X obj 221 87 s \$0-dec;
#X obj 309 87 s \$0-sus;
#X obj 401 87 s \$0-rel;
#X obj 494 108 s \$0-porto;
#X obj 582 109 s \$0-portoStart;
#X obj 592 206 outlet;
#X obj 39 60 route tpose att dec sus rel porto portoStart, f 80;
#X connect 0 0 9 0;
#X connect 9 0 1 0;
#X connect 9 1 2 0;
#X connect 9 2 3 0;
#X connect 9 3 4 0;
#X connect 9 4 5 0;
#X connect 9 5 6 0;
#X connect 9 6 7 0;
#X connect 9 7 8 0;
#X restore 13 45 pd messages;
#X obj 238 198 vline~;
#X obj 13 106 unpack;
#X obj 13 130 swap, f 6;
#X obj 52 225 s \$0-freq;
#X obj 132 324 s \$0-vel;
#X obj 238 387 *~, f 9;
#X obj 298 202 r \$0-freq;
#X msg 238 145 0 0 \, 1 5 0 \, 0.25 20 5 \, 0 100 25;
#X obj 238 481 +~, f 30;
#X obj 445 317 vline~;
#X obj 132 295 / 127;
#X obj 13 368 s \$0-off;
#X obj 238 92 r \$0-vel;
#X obj 238 116 t b;
#X obj 445 395 *~, f 11;
#X obj 519 355 r \$0-freq;
#X obj 52 199 mtof;
#X obj 445 184 r \$0-vel;
#X obj 445 208 t b;
#X obj 238 551 osc~;
#X obj 238 676 *~, f 12;
#X obj 319 539 sqrt;
#X obj 319 510 r \$0-vel;
#X obj 369 532 r \$0-att;
#X obj 461 532 r \$0-dec;
#X obj 470 564 r \$0-sus;
#X obj 548 560 r \$0-rel;
#X text 318 106 atack pitch;
#X text 539 196 pitch;
#X obj 645 543 outlet~;
#X text 711 544 current pitch;
#X obj 498 240 r \$0-porto;
#X obj 445 419 +~ 0, f 17;
#X obj 561 388 r \$0-portoStart;
#X obj 445 268 f 0, f 8;
#X obj 238 780 outlet~;
#X obj 319 618 j-adsr~ 10 200 0.75 1000, f 25;
#X obj 111 491 r \$0-off;
#X obj 111 515 t b;
#X obj 111 539 0;
#X obj 298 226 / 20000;
#X obj 298 250 pow 0.5;
#X obj 298 278 swap 1;
#X obj 298 302 -;
#X obj 298 326 * 500;
#X obj 13 276 sel 0 -1;
#X obj 44 345 s \$0-duck;
#X obj 26 485 r \$0-duck;
#X obj 26 509 -1;
#X obj 63 161 +;
#X obj 90 127 r \$0-tpose;
#X msg 445 292 0 0 \, 1 \$1 0;
#X obj 319 642 *~;
#X obj 238 222 *~;
#X obj 238 251 *~;
#X obj 445 341 *~;
#X obj 445 365 *~;
#X connect 0 0 2 0;
#X connect 2 0 4 0;
#X connect 3 0 56 0;
#X connect 3 0 56 1;
#X connect 4 0 5 0;
#X connect 4 1 5 1;
#X connect 5 0 48 0;
#X connect 5 1 52 0;
#X connect 8 0 11 0;
#X connect 9 0 43 0;
#X connect 10 0 3 0;
#X connect 11 0 22 0;
#X connect 12 0 58 0;
#X connect 12 0 58 1;
#X connect 13 0 7 0;
#X connect 15 0 16 0;
#X connect 16 0 10 0;
#X connect 17 0 35 0;
#X connect 18 0 17 1;
#X connect 19 0 6 0;
#X connect 20 0 21 0;
#X connect 21 0 37 0;
#X connect 22 0 23 0;
#X connect 23 0 38 0;
#X connect 24 0 39 0;
#X connect 25 0 24 0;
#X connect 26 0 39 1;
#X connect 27 0 39 2;
#X connect 28 0 39 3;
#X connect 29 0 39 4;
#X connect 34 0 37 1;
#X connect 35 0 11 1;
#X connect 35 0 32 0;
#X connect 36 0 35 1;
#X connect 37 0 54 0;
#X connect 39 0 55 0;
#X connect 39 0 55 1;
#X connect 40 0 41 0;
#X connect 41 0 42 0;
#X connect 42 0 39 0;
#X connect 43 0 44 0;
#X connect 44 0 45 0;
#X connect 45 0 46 0;
#X connect 45 1 46 1;
#X connect 46 0 47 0;
#X connect 47 0 8 1;
#X connect 48 0 14 0;
#X connect 48 1 49 0;
#X connect 48 2 13 0;
#X connect 50 0 51 0;
#X connect 51 0 39 0;
#X connect 52 0 19 0;
#X connect 53 0 52 1;
#X connect 54 0 12 0;
#X connect 55 0 23 1;
#X connect 56 0 57 0;
#X connect 56 0 57 1;
#X connect 57 0 8 0;
#X connect 58 0 59 0;
#X connect 58 0 59 1;
#X connect 59 0 17 0;
