#N canvas 502 405 450 300 12;
#X obj 51 30 inlet;
#X obj 51 54 t a b, f 8;
#X obj 51 78 max 1;
#X obj 51 102 until;
#X obj 104 81 f 0;
#X obj 51 126 f, f 7;
#X obj 115 126 + 1;
#X obj 51 170 outlet;
#X connect 0 0 1 0;
#X connect 1 0 2 0;
#X connect 1 1 4 0;
#X connect 2 0 3 0;
#X connect 3 0 5 0;
#X connect 4 0 5 1;
#X connect 5 0 6 0;
#X connect 5 0 7 0;
#X connect 6 0 5 1;
