#N canvas 311 123 765 381 12;
#X obj 28 9 inlet;
#X obj 222 8 inlet;
#N canvas 0 25 596 277 messages 0;
#X obj 37 37 inlet;
#X obj 37 111 swap 60000;
#X obj 37 139 /, f 10;
#X obj 37 180 s \$0-bpm;
#X obj 146 138 outlet;
#X obj 37 63 route bpm direct, f 29;
#X connect 0 0 5 0;
#X connect 1 0 2 0;
#X connect 1 1 2 1;
#X connect 2 0 3 0;
#X connect 5 0 1 0;
#X connect 5 1 4 0;
#X restore 222 62 pd messages;
#X text 72 9 lists;
#X obj 28 167 vline~;
#X obj 28 201 pow~ \$1;
#X obj 28 245 outlet~;
#X text 376 50 Arg1: power curve;
#N canvas 415 171 935 691 format-lists 0;
#X obj 21 18 inlet;
#X text 35 134 go to amp;
#X text 238 170 how long in beats;
#X obj 147 132 r \$0-bpm;
#X obj 22 385 pack 0 0 0, f 27;
#X obj 22 439 outlet;
#X obj 21 248 t a b;
#X obj 53 303 swap 1;
#X obj 53 275 f \$1;
#X obj 53 327 /;
#X obj 22 355 pow;
#X obj 115 233 * 250;
#X obj 21 97 unpack 0 0 0, f 24;
#X obj 209 234 * 250;
#X obj 252 413 +;
#X obj 252 543 delay;
#X obj 115 274 t a a;
#X obj 209 258 t a a;
#X obj 252 567 outlet;
#X obj 252 444 t b a b;
#X msg 298 473 stop;
#X obj 147 172 change -1;
#X obj 21 42 t a b, f 32;
#X obj 242 76 f \$2;
#X obj 147 196 t a a;
#X obj 242 103 swap 60000;
#X obj 242 131 /, f 10;
#X connect 0 0 22 0;
#X connect 3 0 21 0;
#X connect 4 0 5 0;
#X connect 6 0 10 0;
#X connect 6 1 8 0;
#X connect 7 0 9 0;
#X connect 7 1 9 1;
#X connect 8 0 7 0;
#X connect 9 0 10 1;
#X connect 10 0 4 0;
#X connect 11 0 16 0;
#X connect 12 0 6 0;
#X connect 12 1 11 0;
#X connect 12 2 13 0;
#X connect 13 0 17 0;
#X connect 14 0 19 0;
#X connect 15 0 18 0;
#X connect 16 0 4 1;
#X connect 16 1 14 0;
#X connect 17 0 4 2;
#X connect 17 1 14 1;
#X connect 19 0 15 0;
#X connect 19 1 15 1;
#X connect 19 2 20 0;
#X connect 20 0 15 0;
#X connect 21 0 24 0;
#X connect 22 0 12 0;
#X connect 22 1 23 0;
#X connect 23 0 25 0;
#X connect 24 0 11 1;
#X connect 24 1 13 1;
#X connect 25 0 26 0;
#X connect 25 1 26 1;
#X connect 26 0 21 0;
#X restore 28 70 pd format-lists;
#X text 375 20 vline~ but synced to tempo;
#X obj 306 243 outlet;
#X text 354 240 report done;
#X text 376 70 Arg2: tempo;
#X connect 0 0 8 0;
#X connect 1 0 2 0;
#X connect 2 0 4 0;
#X connect 4 0 5 0;
#X connect 5 0 6 0;
#X connect 8 0 4 0;
#X connect 8 1 10 0;
