#N canvas 75 87 450 300 12;
#X obj 20 22 inlet;
#X text 61 22 ticks;
#X obj 182 217 outlet~;
#X text 244 216 beep;
#X obj 180 144 *~ 0.5;
#X obj 180 168 *~, f 11;
#X obj 254 120 vline~;
#X obj 254 144 *~;
#X obj 20 76 sel 0;
#X obj 20 100 t b;
#X msg 255 91 1 5 \, 0 90 5;
#X obj 176 57 osc~ 1000;
#X obj 176 82 /~ 4;
#X obj 255 43 osc~ 2000;
#X obj 255 67 /~ 32;
#X obj 20 46 spigot;
#X obj 123 28 inlet;
#X text 169 27 switch;
#X connect 0 0 15 0;
#X connect 4 0 5 0;
#X connect 5 0 2 0;
#X connect 6 0 7 0;
#X connect 6 0 7 1;
#X connect 7 0 5 1;
#X connect 8 0 9 0;
#X connect 9 0 10 0;
#X connect 10 0 6 0;
#X connect 11 0 12 0;
#X connect 12 0 4 0;
#X connect 13 0 14 0;
#X connect 14 0 4 0;
#X connect 15 0 8 0;
#X connect 16 0 15 1;
