#N canvas 45 330 657 509 10;
#X msg 437 182 60000 \$1;
#X obj 437 205 /;
#X obj 236 364 outlet;
#X text 27 170 Arg1: Tick resolution(4-360);
#X obj 328 20 inlet;
#X obj 328 41 t b;
#X obj 236 284 metro 1.388, f 34;
#X obj 437 238 / \$1;
#X obj 453 62 t a a;
#X obj 513 346 outlet;
#X obj 236 316 j-loop \$1 1;
#X obj 139 18 inlet;
#X text 178 17 on/off;
#X msg 311 131 set 0;
#X obj 453 18 inlet;
#X text 502 21 BPM;
#X connect 0 0 1 0;
#X connect 1 0 7 0;
#X connect 4 0 5 0;
#X connect 5 0 13 0;
#X connect 6 0 10 0;
#X connect 7 0 6 1;
#X connect 8 0 0 0;
#X connect 8 1 9 0;
#X connect 10 0 2 0;
#X connect 11 0 6 0;
#X connect 13 0 10 0;
#X connect 14 0 8 0;
