#N canvas 305 114 450 300 12;
#X obj 49 11 inlet;
#X text 99 10 bang;
#X obj 49 131 spigot 1;
#X obj 49 35 t b;
#X obj 49 155 t b b;
#X obj 126 134 0;
#X obj 49 209 outlet;
#X obj 153 11 inlet;
#X text 202 10 reset;
#X obj 153 35 t b;
#X obj 153 59 1;
#X connect 0 0 3 0;
#X connect 2 0 4 0;
#X connect 3 0 2 0;
#X connect 4 0 6 0;
#X connect 4 1 5 0;
#X connect 5 0 2 1;
#X connect 7 0 9 0;
#X connect 9 0 10 0;
#X connect 10 0 2 1;
