#N canvas 807 109 633 610 12;
#X obj 95 340 vline~;
#X obj 95 60 / 127;
#X obj 95 9 inlet;
#X text 136 9 vel;
#X obj 94 488 outlet~;
#X obj 95 86 clip 0 1;
#X obj 239 357 vline~;
#X obj 95 170 t a a, f 21;
#X obj 94 250 pack 0 \$1 \$2;
#X obj 239 262 pack 0 \$1 \$2;
#X obj 197 8 inlet;
#X text 242 7 attack time;
#X obj 311 35 inlet;
#X text 362 32 decay time;
#X obj 197 32 s \$0-att;
#X obj 135 197 r \$0-att;
#X obj 239 381 *~;
#X obj 311 59 s \$0-dec;
#X obj 163 223 r \$0-dec;
#X obj 293 198 r \$0-att;
#X obj 308 226 r \$0-dec;
#X obj 440 86 inlet;
#X text 487 86 end;
#X msg 239 292 0 0 \, \$1 0 \$2 \, 0 \$3 \$2;
#X obj 239 405 *~;
#X obj 95 364 *~;
#X obj 95 388 *~;
#X obj 35 394 sig~ 1;
#X obj 35 418 -~, f 9;
#N canvas 0 25 450 300 invert 0;
#X obj 48 17 inlet;
#X obj 37 85 swap 1;
#X obj 37 109 -;
#X obj 37 217 outlet;
#X obj 46 46 list split 1;
#X obj 37 193 list append, f 17;
#X obj 37 133 sqrt;
#X obj 37 157 sqrt;
#X connect 0 0 4 0;
#X connect 1 0 2 0;
#X connect 1 1 2 1;
#X connect 2 0 6 0;
#X connect 4 0 1 0;
#X connect 4 1 5 1;
#X connect 5 0 3 0;
#X connect 6 0 7 0;
#X connect 7 0 5 0;
#X restore 94 307 pd invert;
#X obj 231 195 sqrt;
#X obj 231 219 sqrt;
#X msg 95 275 0 0 \, \$1 \$2 \, 0 0 \$2;
#X obj 25 286 loadbang;
#X msg 25 310 1 0;
#X obj 440 110 t b b;
#X msg 175 326 1 3;
#X msg 358 355 0 3;
#X connect 0 0 25 0;
#X connect 0 0 25 1;
#X connect 1 0 5 0;
#X connect 2 0 1 0;
#X connect 5 0 7 0;
#X connect 6 0 16 0;
#X connect 6 0 16 1;
#X connect 7 0 8 0;
#X connect 7 1 30 0;
#X connect 8 0 32 0;
#X connect 9 0 23 0;
#X connect 10 0 14 0;
#X connect 12 0 17 0;
#X connect 15 0 8 1;
#X connect 16 0 24 0;
#X connect 16 0 24 1;
#X connect 18 0 8 2;
#X connect 19 0 9 1;
#X connect 20 0 9 2;
#X connect 21 0 35 0;
#X connect 23 0 6 0;
#X connect 24 0 4 0;
#X connect 25 0 26 0;
#X connect 25 0 26 1;
#X connect 26 0 28 1;
#X connect 27 0 28 0;
#X connect 28 0 4 0;
#X connect 29 0 0 0;
#X connect 30 0 31 0;
#X connect 31 0 9 0;
#X connect 32 0 29 0;
#X connect 33 0 34 0;
#X connect 34 0 0 0;
#X connect 35 0 36 0;
#X connect 35 1 37 0;
#X connect 36 0 0 0;
#X connect 37 0 6 0;
