#N canvas 832 25 600 504 12;
#X obj 19 24 inlet;
#X obj 394 139 text define \$0-seqq-rec;
#X text 69 25 messages;
#N canvas 235 41 450 300 mess 0;
#X obj 37 23 inlet;
#X obj 85 104 s \$0-ticks;
#X obj 37 143 s \$0-event;
#X obj 145 145 s \$0-start;
#X obj 184 108 s \$0-stop;
#X obj 37 55 route event ticks start stop dump;
#X obj 217 82 s \$0-dump;
#X connect 0 0 5 0;
#X connect 5 0 2 0;
#X connect 5 1 1 0;
#X connect 5 2 3 0;
#X connect 5 3 4 0;
#X connect 5 4 6 0;
#X restore 19 48 pd mess;
#X obj 155 143 j-metro-loop 1e+08;
#X obj 155 176 / 360;
#X obj 155 112 r \$0-ticks;
#X obj 204 168 r \$0-event;
#X obj 278 32 r \$0-start;
#X obj 278 56 t b b, f 17;
#X msg 394 106 clear;
#X msg 278 105 start;
#X obj 216 337 1e+09;
#X obj 137 269 list append;
#X obj 137 238 f;
#X obj 204 192 t b a;
#X obj 137 293 t a b;
#X msg 393 264 stop;
#X obj 361 202 r \$0-stop;
#X obj 361 234 t b b;
#X msg 349 104 sort;
#N canvas 260 223 450 300 dump 0;
#X obj 34 25 r \$0-dump;
#X obj 34 69 t b;
#X obj 34 93 text size \$0-seqq-rec;
#X obj 35 204 f;
#X obj 78 200 + 1;
#X obj 35 176 until;
#X obj 35 149 max 1;
#X obj 34 124 t a b;
#X obj 87 160 0;
#X obj 35 231 text get \$0-seqq-rec;
#X obj 35 265 outlet;
#X connect 0 0 1 0;
#X connect 1 0 2 0;
#X connect 2 0 7 0;
#X connect 3 0 4 0;
#X connect 3 0 9 0;
#X connect 4 0 3 1;
#X connect 5 0 3 0;
#X connect 6 0 5 0;
#X connect 7 0 6 0;
#X connect 7 1 8 0;
#X connect 8 0 3 1;
#X connect 9 0 10 0;
#X restore 33 421 pd dump;
#X obj 33 445 outlet;
#X obj 137 367 text set \$0-seqq-rec;
#X connect 0 0 3 0;
#X connect 4 0 5 0;
#X connect 5 0 14 1;
#X connect 6 0 4 0;
#X connect 7 0 15 0;
#X connect 8 0 9 0;
#X connect 9 0 11 0;
#X connect 9 1 10 0;
#X connect 10 0 1 0;
#X connect 11 0 4 1;
#X connect 12 0 23 1;
#X connect 13 0 16 0;
#X connect 14 0 13 0;
#X connect 15 0 14 0;
#X connect 15 1 13 1;
#X connect 16 0 23 0;
#X connect 16 1 12 0;
#X connect 17 0 4 1;
#X connect 18 0 19 0;
#X connect 19 0 20 0;
#X connect 19 1 17 0;
#X connect 20 0 1 0;
#X connect 21 0 22 0;
