#N canvas 255 277 1098 420 12;
#X obj 5 11 inlet;
#X obj 156 382 text define \$0-temp;
#X text 123 13 say clear \, than send in a list of beat number \, than
note info;
#X msg 5 190 \; \$1-temp clear;
#X obj 5 160 \$0;
#X obj 5 89 t b b;
#X obj 156 117 list split 1, f 19;
#X obj 156 141 * 360;
#X obj 156 235 i;
#X obj 156 289 list append;
#X obj 156 259 t a a, f 17;
#N canvas 0 25 450 300 place 0;
#X obj 44 30 inlet;
#X obj 134 272 outlet;
#X obj 44 128 sel -1;
#X obj 17 174 0;
#X obj 44 68 text search \$0-temp <= 0;
#X obj 112 187 + 1;
#X connect 0 0 4 0;
#X connect 2 0 3 0;
#X connect 2 1 5 0;
#X connect 3 0 1 0;
#X connect 4 0 2 0;
#X connect 5 0 1 0;
#X restore 272 289 pd place;
#X obj 157 347 text insert \$0-temp;
#N canvas 352 25 1026 807 play 0;
#X obj 35 16 inlet;
#X obj 357 309 + 1;
#X obj 285 364 text get \$0-temp;
#X obj 35 45 sel 0 1, f 72;
#X obj 317 144 s \$0-loop;
#X obj 317 114 1;
#X obj 171 136 r \$0-loop;
#X obj 97 163 spigot 0, f 11;
#X obj 97 123 r \$0-fb;
#X obj 128 386 r \$0-ticks;
#X obj 352 491 t b a;
#X obj 352 436 list split 1;
#X obj 285 393 route bang;
#X obj 362 697 list store, f 18;
#X obj 331 620 sel 1;
#X obj 36 220 s \$0-loop;
#X obj 36 190 0;
#X obj 362 761 outlet;
#X obj 331 648 t b b;
#X obj 245 724 s \$0-fb;
#X obj 352 460 i;
#X obj 128 444 spigot 0;
#X obj 181 414 r \$0-loop;
#X obj 174 563 s \$0-new-loop;
#X obj 310 182 r \$0-new-loop;
#X obj 285 87 t b b;
#X obj 174 510 <;
#X obj 128 468 t a a a;
#X obj 174 534 sel 1;
#X obj 331 586 == -1, f 8;
#X obj 331 550 i;
#X obj 285 216 t b, f 10;
#X obj 285 240 f 0;
#X obj 285 331 t f f;
#X obj 285 307 f 0, f 6;
#X connect 0 0 3 0;
#X connect 1 0 34 1;
#X connect 2 0 12 0;
#X connect 3 0 16 0;
#X connect 3 1 25 0;
#X connect 5 0 4 0;
#X connect 6 0 7 1;
#X connect 7 0 34 0;
#X connect 8 0 7 0;
#X connect 9 0 21 0;
#X connect 10 0 30 0;
#X connect 10 1 29 1;
#X connect 11 0 20 0;
#X connect 11 1 13 1;
#X connect 12 1 11 0;
#X connect 13 0 17 0;
#X connect 14 0 18 0;
#X connect 16 0 15 0;
#X connect 18 0 19 0;
#X connect 18 1 13 0;
#X connect 20 0 10 0;
#X connect 21 0 27 0;
#X connect 22 0 21 1;
#X connect 24 0 31 0;
#X connect 25 0 31 0;
#X connect 25 1 5 0;
#X connect 26 0 28 0;
#X connect 27 0 30 0;
#X connect 27 1 26 1;
#X connect 27 2 26 0;
#X connect 28 0 23 0;
#X connect 29 0 14 0;
#X connect 30 0 29 0;
#X connect 31 0 32 0;
#X connect 32 0 34 0;
#X connect 33 0 2 0;
#X connect 33 1 1 0;
#X connect 34 0 33 0;
#X restore 356 124 pd play;
#X obj 724 107 s \$0-ticks;
#X obj 356 213 outlet;
#X obj 483 172 outlet;
#X text 538 173 list to save;
#X obj 483 140 text tolist \$0-temp;
#X obj 483 113 t b;
#X text 406 214 sequencer out;
#X text 664 186 incoming list to load;
#X obj 675 167 text fromlist \$0-temp;
#X obj 4 65 route clear list play save load ticks, f 122;
#X obj 156 169 max 0;
#X connect 0 0 23 0;
#X connect 4 0 3 0;
#X connect 5 0 4 0;
#X connect 6 0 7 0;
#X connect 6 1 9 1;
#X connect 7 0 24 0;
#X connect 8 0 10 0;
#X connect 9 0 12 0;
#X connect 10 0 9 0;
#X connect 10 1 11 0;
#X connect 11 0 12 1;
#X connect 13 0 15 0;
#X connect 18 0 16 0;
#X connect 19 0 18 0;
#X connect 23 0 5 0;
#X connect 23 1 6 0;
#X connect 23 2 13 0;
#X connect 23 3 19 0;
#X connect 23 4 22 0;
#X connect 23 5 14 0;
#X connect 24 0 8 0;
