#N canvas 342 214 1098 595 12;
#X obj 25 21 inlet;
#X text 143 23 say clear \, than send in a list of beat number \, than
note info;
#N canvas 352 25 1026 807 play 0;
#X obj 35 16 inlet;
#X obj 357 309 + 1;
#X obj 35 45 sel 0 1, f 72;
#X obj 317 144 s \$0-loop;
#X obj 317 114 1;
#X obj 171 136 r \$0-loop;
#X obj 97 163 spigot 0, f 11;
#X obj 97 123 r \$0-fb;
#X obj 128 386 r \$0-ticks;
#X obj 352 491 t b a;
#X obj 352 436 list split 1;
#X obj 285 393 route bang;
#X obj 362 697 list store, f 18;
#X obj 331 620 sel 1;
#X obj 36 220 s \$0-loop;
#X obj 36 190 0;
#X obj 362 761 outlet;
#X obj 331 648 t b b;
#X obj 245 724 s \$0-fb;
#X obj 352 460 i;
#X obj 128 444 spigot 0;
#X obj 181 414 r \$0-loop;
#X obj 174 563 s \$0-new-loop;
#X obj 310 182 r \$0-new-loop;
#X obj 285 87 t b b;
#X obj 174 510 <;
#X obj 128 468 t a a a;
#X obj 174 534 sel 1;
#X obj 331 586 == -1, f 8;
#X obj 331 550 i;
#X obj 285 216 t b, f 10;
#X obj 285 240 f 0;
#X obj 285 331 t f f;
#X obj 285 307 f 0, f 6;
#X obj 285 364 text get \$0-main;
#X obj 502 606 r \$0-clear;
#X connect 0 0 2 0;
#X connect 1 0 33 1;
#X connect 2 0 15 0;
#X connect 2 1 24 0;
#X connect 4 0 3 0;
#X connect 5 0 6 1;
#X connect 6 0 33 0;
#X connect 7 0 6 0;
#X connect 8 0 20 0;
#X connect 9 0 29 0;
#X connect 9 1 28 1;
#X connect 10 0 19 0;
#X connect 10 1 12 1;
#X connect 11 1 10 0;
#X connect 12 0 16 0;
#X connect 13 0 17 0;
#X connect 15 0 14 0;
#X connect 17 0 18 0;
#X connect 17 1 12 0;
#X connect 19 0 9 0;
#X connect 20 0 26 0;
#X connect 21 0 20 1;
#X connect 23 0 30 0;
#X connect 24 0 30 0;
#X connect 24 1 4 0;
#X connect 25 0 27 0;
#X connect 26 0 29 0;
#X connect 26 1 25 1;
#X connect 26 2 25 0;
#X connect 27 0 22 0;
#X connect 28 0 13 0;
#X connect 29 0 28 0;
#X connect 30 0 31 0;
#X connect 31 0 33 0;
#X connect 32 0 34 0;
#X connect 32 1 1 0;
#X connect 33 0 32 0;
#X connect 34 0 11 0;
#X connect 35 0 12 1;
#X restore 305 169 pd play;
#X obj 744 117 s \$0-ticks;
#X obj 305 258 outlet;
#X obj 390 192 outlet;
#X text 445 193 list to save;
#X obj 390 133 t b;
#X text 355 259 sequencer out;
#X text 548 170 incoming list to load;
#N canvas 473 159 857 681 lists 0;
#X obj 200 82 inlet;
#X obj 470 628 text define \$0-temp;
#X obj 196 196 list split 1, f 19;
#X obj 196 220 * 360;
#X obj 196 314 i;
#X obj 197 384 list append;
#X obj 196 248 max 0;
#X msg 470 594 sort;
#X obj 307 380 1e+09;
#X obj 197 426 text set \$0-temp;
#X obj 196 338 t a b, f 17;
#X obj 318 629 text define \$0-main;
#X obj 131 621 text tolist \$0-temp;
#X obj 131 650 text fromlist \$0-main;
#X obj 568 547 r \$0-clear;
#X msg 568 571 clear;
#X obj 267 471 r \$0-start;
#X obj 267 495 t b b b, f 24;
#X msg 319 604 clear;
#X connect 0 0 2 0;
#X connect 2 0 3 0;
#X connect 2 1 5 1;
#X connect 3 0 6 0;
#X connect 4 0 10 0;
#X connect 5 0 9 0;
#X connect 6 0 4 0;
#X connect 7 0 1 0;
#X connect 8 0 9 1;
#X connect 10 0 5 0;
#X connect 10 1 8 0;
#X connect 12 0 13 0;
#X connect 14 0 15 0;
#X connect 15 0 1 0;
#X connect 16 0 17 0;
#X connect 17 0 12 0;
#X connect 17 1 18 0;
#X connect 17 2 7 0;
#X connect 18 0 11 0;
#X restore 164 171 pd lists;
#X obj 390 160 text tolist \$0-main;
#X obj 559 151 text fromlist \$0-main;
#X obj 24 99 t b;
#X obj 24 316 s \$0-clear;
#X obj 24 75 route clear list play save load ticks start, f 122;
#X obj 836 147 s \$0-start;
#X connect 0 0 15 0;
#X connect 2 0 4 0;
#X connect 7 0 11 0;
#X connect 11 0 5 0;
#X connect 13 0 14 0;
#X connect 15 0 13 0;
#X connect 15 1 10 0;
#X connect 15 2 2 0;
#X connect 15 3 7 0;
#X connect 15 4 12 0;
#X connect 15 5 3 0;
#X connect 15 6 16 0;
