#N canvas 342 214 1098 595 12;
#X obj 25 21 inlet;
#X text 143 23 say clear \, than send in a list of beat number \, than
note info;
#N canvas 352 25 1026 807 play 0;
#X obj 35 16 inlet;
#X obj 357 309 + 1;
#X obj 35 45 sel 0 1, f 72;
#X obj 317 144 s \$0-loop;
#X obj 317 114 1;
#X obj 171 136 r \$0-loop;
#X obj 97 163 spigot 0, f 11;
#X obj 97 123 r \$0-fb;
#X obj 128 386 r \$0-ticks;
#X obj 352 491 t b a;
#X obj 352 436 list split 1;
#X obj 285 393 route bang;
#X obj 362 697 list store, f 18;
#X obj 331 620 sel 1;
#X obj 36 220 s \$0-loop;
#X obj 36 190 0;
#X obj 362 761 outlet;
#X obj 331 648 t b b;
#X obj 245 724 s \$0-fb;
#X obj 352 460 i;
#X obj 128 444 spigot 0;
#X obj 181 414 r \$0-loop;
#X obj 174 563 s \$0-new-loop;
#X obj 310 182 r \$0-new-loop;
#X obj 285 87 t b b;
#X obj 174 510 <;
#X obj 128 468 t a a a;
#X obj 174 534 sel 1;
#X obj 331 586 == -1, f 8;
#X obj 331 550 i;
#X obj 285 240 f 0;
#X obj 285 331 t f f;
#X obj 285 307 f 0, f 6;
#X obj 285 364 text get \$0-main;
#X obj 502 606 r \$0-clear;
#X obj 443 226 v \$0-buff-track;
#X obj 443 304 pack 0 \$0;
#X msg 443 328 symbol \$2-main-\$1;
#X obj 443 250 change -1;
#X obj 443 274 + 1;
#X obj 285 216 t b b, f 10;
#X connect 0 0 2 0;
#X connect 1 0 32 1;
#X connect 2 0 15 0;
#X connect 2 1 24 0;
#X connect 4 0 3 0;
#X connect 5 0 6 1;
#X connect 6 0 32 0;
#X connect 7 0 6 0;
#X connect 8 0 20 0;
#X connect 9 0 29 0;
#X connect 9 1 28 1;
#X connect 10 0 19 0;
#X connect 10 1 12 1;
#X connect 11 1 10 0;
#X connect 12 0 16 0;
#X connect 13 0 17 0;
#X connect 15 0 14 0;
#X connect 17 0 18 0;
#X connect 17 1 12 0;
#X connect 19 0 9 0;
#X connect 20 0 26 0;
#X connect 21 0 20 1;
#X connect 23 0 40 0;
#X connect 24 0 40 0;
#X connect 24 1 4 0;
#X connect 25 0 27 0;
#X connect 26 0 29 0;
#X connect 26 1 25 1;
#X connect 26 2 25 0;
#X connect 27 0 22 0;
#X connect 28 0 13 0;
#X connect 29 0 28 0;
#X connect 30 0 32 0;
#X connect 31 0 33 0;
#X connect 31 1 1 0;
#X connect 32 0 31 0;
#X connect 33 0 11 0;
#X connect 34 0 12 1;
#X connect 35 0 38 0;
#X connect 36 0 37 0;
#X connect 37 0 33 3;
#X connect 38 0 39 0;
#X connect 39 0 36 0;
#X connect 40 0 30 0;
#X connect 40 1 35 0;
#X restore 305 169 pd play;
#X obj 726 147 s \$0-ticks;
#X obj 305 258 outlet;
#X obj 427 192 outlet;
#X text 482 193 list to save;
#X text 355 259 sequencer out;
#X text 606 214 incoming list to load;
#N canvas 221 25 1025 824 lists 0;
#X obj 20 10 inlet;
#X obj 586 655 text define \$0-temp;
#X obj 20 54 list split 1, f 19;
#X obj 20 78 * 360;
#X obj 20 172 i;
#X obj 20 242 list append;
#X obj 20 106 max 0;
#X msg 586 601 sort;
#X obj 136 238 1e+09;
#X obj 20 284 text set \$0-temp;
#X obj 20 196 t a b, f 17;
#X obj 197 742 text tolist \$0-temp;
#X obj 197 771 text fromlist \$0-main;
#X obj 684 574 r \$0-clear;
#X msg 684 598 clear;
#X obj 197 331 r \$0-start;
#X obj 229 400 v \$0-buff-track;
#X obj 229 424 == 0;
#X obj 229 447 v \$0-buff-track;
#X text 665 631 buffer for adding and working on sequence;
#X obj 465 29 text define \$0-main-1;
#X obj 465 69 text define \$0-main-2;
#X obj 341 704 pack 0 \$0;
#X msg 341 732 symbol \$2-main-\$1;
#X text 238 380 switch the main buff;
#X obj 197 355 t b b;
#X obj 197 479 v \$0-buff-track;
#X obj 391 609 pack 0 \$0;
#X msg 391 636 \; \$2-main-\$1 clear;
#X text 630 29 *** 2 list buffers;
#X obj 197 503 + 1;
#X text 226 503 convert 1/2;
#X obj 197 656 t b a;
#X obj 197 545 t f f b, f 56;
#X obj 338 24 r \$0-clear;
#X msg 338 48 clear;
#X connect 0 0 2 0;
#X connect 2 0 3 0;
#X connect 2 1 5 1;
#X connect 3 0 6 0;
#X connect 4 0 10 0;
#X connect 5 0 9 0;
#X connect 6 0 4 0;
#X connect 7 0 1 0;
#X connect 8 0 9 1;
#X connect 10 0 5 0;
#X connect 10 1 8 0;
#X connect 11 0 12 0;
#X connect 13 0 14 0;
#X connect 14 0 1 0;
#X connect 15 0 25 0;
#X connect 16 0 17 0;
#X connect 17 0 18 0;
#X connect 22 0 23 0;
#X connect 23 0 12 1;
#X connect 25 0 26 0;
#X connect 25 1 16 0;
#X connect 26 0 30 0;
#X connect 27 0 28 0;
#X connect 30 0 33 0;
#X connect 32 0 11 0;
#X connect 32 1 22 0;
#X connect 33 0 32 0;
#X connect 33 1 27 0;
#X connect 33 2 7 0;
#X connect 34 0 35 0;
#X connect 35 0 20 0;
#X connect 35 0 21 0;
#X restore 164 171 pd lists;
#X obj 24 99 t b;
#X obj 24 316 s \$0-clear;
#X obj 868 134 s \$0-start;
#X obj 618 195 text fromlist \$0-temp;
#X obj 24 75 route clear list play dump load ticks update, f 141;
#N canvas 0 25 450 300 dump 0;
#X obj 31 284 outlet;
#X obj 37 46 inlet;
#X obj 37 241 text tolist \$0-main;
#X obj 81 104 v \$0-buff-track;
#X msg 81 203 symbol \$2-main-\$1;
#X obj 37 74 t b b;
#X obj 81 178 pack 0 \$0;
#X obj 81 128 change -1;
#X obj 81 152 + 1;
#X connect 1 0 5 0;
#X connect 2 0 0 0;
#X connect 3 0 7 0;
#X connect 4 0 2 1;
#X connect 5 0 2 0;
#X connect 5 1 3 0;
#X connect 6 0 4 0;
#X connect 7 0 8 0;
#X connect 8 0 6 0;
#X restore 446 133 pd dump;
#X obj 583 282 s \$0-start;
#X obj 587 161 t b a;
#X text 610 260 rapid update;
#X connect 0 0 14 0;
#X connect 2 0 4 0;
#X connect 10 0 11 0;
#X connect 14 0 10 0;
#X connect 14 1 9 0;
#X connect 14 2 2 0;
#X connect 14 3 15 0;
#X connect 14 4 17 0;
#X connect 14 5 3 0;
#X connect 14 6 12 0;
#X connect 15 0 5 0;
#X connect 17 0 16 0;
#X connect 17 1 13 0;
