#N canvas 273 259 672 383 12;
#X obj 27 176 pack 0 0 0 0;
#X obj 27 129 unpack 0 0 0;
#X obj 27 153 poly \$1 1;
#X obj 27 204 clone -s 1 \$1 j-makenote-voice;
#X obj 67 269 outlet;
#X obj 27 227 list split 1;
#X text 407 100 arg 1: polyphony;
#X obj 27 97 pack 0 \$2 \$3, f 40;
#X obj 27 25 inlet;
#X text 48 47 midi note;
#X obj 165 25 inlet;
#X text 177 53 velocity;
#X obj 304 25 inlet;
#X text 320 51 length(ms);
#X text 406 119 arg 2: Velocity;
#X text 409 141 arg 3: length in ms;
#X connect 0 0 3 0;
#X connect 1 0 2 0;
#X connect 1 1 2 1;
#X connect 1 2 0 3;
#X connect 2 0 0 0;
#X connect 2 1 0 1;
#X connect 2 2 0 2;
#X connect 3 0 5 0;
#X connect 5 1 4 0;
#X connect 7 0 1 0;
#X connect 8 0 7 0;
#X connect 10 0 7 1;
#X connect 12 0 7 2;
