#N canvas 0 25 861 595 12;
#X declare -path ../j-bibliothek;
#N canvas 575 136 838 417 j-bibliothek-header 0;
#X obj 10 63 loadbang;
#X obj 10 269 s j-loadbang;
#X text 231 19 place this in your main patch when using jwy-bibliothek
;
#X obj 10 86 t b b;
#X obj 107 81 bng 15 250 50 0 empty empty empty 17 7 0 10 -262144 -1
-1;
#X text 131 82 manually reload the global path;
#X obj 13 335 text define j-path-text;
#X msg 42 113 dir;
#X obj 42 136 pdcontrol;
#X obj 42 231 text set j-path-text;
#X obj 42 159 list fromsymbol;
#X obj 42 182 t a b;
#X msg 74 207 0;
#X text 118 138 sends out main gets where thito other objects;
#X obj 141 276 j-get-local-path;
#X text 268 276 <-- use this to get the local path;
#X text 409 62 *** weird work-around until i figure out how to compile
a library;
#X obj 5 22 declare -path ../j-bibliothek;
#X connect 0 0 3 0;
#X connect 3 0 1 0;
#X connect 3 1 7 0;
#X connect 4 0 3 0;
#X connect 7 0 8 0;
#X connect 8 0 10 0;
#X connect 10 0 11 0;
#X connect 11 0 9 0;
#X connect 11 1 12 0;
#X connect 12 0 9 1;
#X restore 5 13 pd j-bibliothek-header;
#X obj 462 49 j-metro-ticks 360;
#X obj 462 11 tgl 15 0 empty empty empty 17 7 0 10 -262144 -1 -1 0
1;
#X obj 462 73 s glob-ticks;
#X floatatom 578 18 5 0 0 0 - - -;
#X obj 23 355 j-stereo-out;
#X connect 1 0 3 0;
#X connect 2 0 1 0;
#X connect 4 0 1 2;
