#N canvas 324 389 702 352 12;
#X obj 24 16 inlet~;
#X text 78 16 freq;
#X text 415 10 amp;
#X obj 24 169 phasor~;
#X obj 219 14 inlet~;
#X text 271 15 mod;
#X obj 24 193 +~, f 28;
#X obj 24 217 cos~;
#X obj 24 241 *~, f 48;
#X obj 360 11 inlet~;
#X obj 24 285 outlet~;
#X obj 24 140 *~, f 15;
#X text 168 14 ratio;
#X obj 126 14 inlet~;
#X connect 0 0 11 0;
#X connect 3 0 6 0;
#X connect 4 0 6 1;
#X connect 6 0 7 0;
#X connect 7 0 8 0;
#X connect 8 0 10 0;
#X connect 9 0 8 1;
#X connect 11 0 3 0;
#X connect 13 0 11 1;
