#N canvas 359 241 450 300 12;
#X obj 23 13 inlet;
#X text 68 15 messages;
#N canvas 499 184 860 635 mess 0;
#X obj 84 9 inlet;
#X obj 259 301 list store;
#X obj 38 468 text get \$0-j-store;
#X obj 38 492 outlet;
#X text 100 495 outputs a list to set j-seqq;
#X text 306 330 saves the list at port number;
#X obj 259 267 t b a;
#X obj 56 310 text size \$0-j-store;
#X obj 38 366 min;
#X obj 38 283 t a b;
#X obj 38 420 - 1;
#X text 71 419 -1 for 0-i index;
#X text 92 290 get size;
#X obj 113 138 text size \$0-j-store;
#X obj 95 194 min;
#X obj 95 111 t a b;
#X obj 95 248 - 1;
#X text 128 247 -1 for 0-i index;
#X text 149 118 get size;
#X obj 95 218 max 1;
#X obj 38 390 max 0;
#X text 341 282 save list in buffer;
#X obj 404 201 text define \$0-j-store;
#X obj 404 141 list prepend write;
#X obj 404 165 list trim;
#X text 474 118 path to save and write .txt;
#X obj 277 165 list trim;
#X obj 277 141 list prepend read;
#X obj 538 27 inlet;
#X obj 37 61 route recall save read write getSize, f 99;
#X obj 637 159 t b;
#X obj 638 184 text size \$0-j-store;
#X obj 638 208 outlet;
#X obj 260 353 text set \$0-j-store;
#X obj 113 162 + 1;
#X obj 56 334 + 1;
#X connect 0 0 1 1;
#X connect 1 0 33 0;
#X connect 2 0 3 0;
#X connect 6 0 1 0;
#X connect 6 1 33 1;
#X connect 7 0 35 0;
#X connect 8 0 20 0;
#X connect 9 0 8 0;
#X connect 9 1 7 0;
#X connect 10 0 2 0;
#X connect 13 0 34 0;
#X connect 14 0 19 0;
#X connect 15 0 14 0;
#X connect 15 1 13 0;
#X connect 16 0 6 0;
#X connect 19 0 16 0;
#X connect 20 0 10 0;
#X connect 23 0 24 0;
#X connect 24 0 22 0;
#X connect 26 0 22 0;
#X connect 27 0 26 0;
#X connect 28 0 29 0;
#X connect 29 0 9 0;
#X connect 29 1 15 0;
#X connect 29 2 27 0;
#X connect 29 3 23 0;
#X connect 29 4 30 0;
#X connect 30 0 31 0;
#X connect 31 0 32 0;
#X connect 34 0 14 1;
#X connect 35 0 8 1;
#X restore 23 87 pd mess;
#X obj 25 263 outlet;
#X text 78 262 set a new sequence in j-seqq;
#X obj 212 13 inlet;
#X text 258 14 messages;
#X obj 148 221 outlet;
#X text 207 222 size;
#X connect 0 0 2 0;
#X connect 2 0 3 0;
#X connect 2 1 7 0;
#X connect 5 0 2 1;
