#N canvas 545 238 778 520 10;
#X obj 63 83 - 1;
#X obj 63 104 pack 0 0 0, f 11;
#X obj 61 279 catch~ add-big-busL-\$1;
#X obj 225 279 catch~ add-big-busR-\$1;
#X obj 61 300 outlet~;
#X obj 225 300 outlet~;
#X text 392 19 Arg1: unique number;
#X text 392 39 Arg2: number of partials;
#X text 393 59 Arg3: number of voices;
#X obj 568 28 inlet;
#N canvas 113 171 819 481 messages 1;
#X obj 37 37 inlet;
#X obj 37 250 s \$1-add-filter;
#X text 71 209 number of partials;
#X obj 37 207 * \$2;
#X obj 56 154 r \$1-load-presets;
#X msg 56 182 0;
#X obj 37 228 + 1;
#X obj 37 127 clip 0 1;
#X obj 131 120 s add-\$1-waveform;
#X obj 259 196 lop~ 5;
#X obj 258 226 s~ \$1-add-transpose;
#X obj 606 207 s \$1-load-presets;
#X obj 606 184 t b;
#X obj 37 60 route filter wave trans hip lop boost loadbang, f 111
;
#X obj 415 144 s \$1-lop-sharp;
#X obj 321 165 s \$1-hip-sharp;
#X obj 508 125 s \$1-filter-boost;
#X obj 321 88 clip 0 1;
#X obj 415 84 clip 0 1;
#X obj 508 81 clip 0 1;
#X obj 508 101 * 2;
#X obj 43 432 s \$1-att-control;
#X obj 113 400 s \$1-dec-control;
#X obj 175 370 s \$1-sus-control;
#X obj 287 345 s \$1-rel-control;
#X obj 321 108 pow 2;
#X obj 416 103 pow 2;
#X obj 321 128 * 25;
#X obj 416 123 * 25;
#X obj 417 385 s \$1-add-sync-sW;
#X obj 45 310 route att dec sus rel sync port, f 74;
#X obj 427 351 s \$1-add-port;
#X connect 0 0 13 0;
#X connect 3 0 6 0;
#X connect 4 0 5 0;
#X connect 5 0 3 0;
#X connect 6 0 1 0;
#X connect 7 0 3 0;
#X connect 9 0 10 0;
#X connect 12 0 11 0;
#X connect 13 0 7 0;
#X connect 13 1 8 0;
#X connect 13 2 9 0;
#X connect 13 3 17 0;
#X connect 13 4 18 0;
#X connect 13 5 19 0;
#X connect 13 6 12 0;
#X connect 13 7 30 0;
#X connect 17 0 25 0;
#X connect 18 0 26 0;
#X connect 19 0 20 0;
#X connect 20 0 16 0;
#X connect 25 0 27 0;
#X connect 26 0 28 0;
#X connect 27 0 15 0;
#X connect 28 0 14 0;
#X connect 30 0 21 0;
#X connect 30 1 22 0;
#X connect 30 2 23 0;
#X connect 30 3 24 0;
#X connect 30 4 29 0;
#X connect 30 5 31 0;
#X restore 568 61 pd messages;
#X obj 63 154 clone additive-voice \$3 \$1 \$2;
#X obj 63 62 poly \$3 1, f 11;
#X obj 63 21 inlet;
#X text 115 14 note;
#N canvas 599 439 450 300 algos 1;
#N canvas 597 241 625 385 set-oscillator 0;
#X obj 36 106 j-for-loop;
#X obj 36 84 f \$2;
#X text 73 84 partial number;
#X msg 36 304 \; \$3-add-\$2-index \$1;
#X obj 36 190 pack 0 \$1 0;
#X obj 36 127 t a a, f 13;
#N canvas 121 146 450 300 alogs 0;
#X obj 37 37 inlet;
#X obj 229 34 inlet;
#X obj 44 214 outlet;
#X obj 57 75 t a a;
#X obj 89 96 % 2;
#X obj 89 117 sel 0 1;
#X obj 57 96 * 2;
#X obj 57 117 + 1;
#X obj 57 168 *;
#X obj 89 138 -1;
#X obj 121 138 1;
#X connect 0 0 3 0;
#X connect 3 0 6 0;
#X connect 3 1 4 0;
#X connect 4 0 5 0;
#X connect 5 0 9 0;
#X connect 5 1 10 0;
#X connect 6 0 7 0;
#X connect 7 0 8 0;
#X connect 8 0 2 0;
#X connect 9 0 8 1;
#X connect 10 0 8 1;
#X restore 36 148 pd alogs;
#X obj 315 134 r \$1-add-\$3-max-vol;
#X msg 191 337 \; \$3-add-\$2-max-vol \$1;
#X obj 36 211 t a a;
#X obj 321 213 s \$1-add-\$3-amp-env;
#X obj 35 50 bng 15 250 50 0 empty empty empty 17 7 0 10 #fcfcfc #000000
#000000;
#X obj 105 21 bng 15 250 50 0 empty empty empty 17 7 0 10 #fcfcfc #000000
#000000;
#X obj 105 42 r \$0-set-algos;
#X obj 191 255 unpack 0 0 0;
#X obj 191 306 pack 0 0 0;
#X obj 191 276 * 8;
#X connect 0 0 5 0;
#X connect 1 0 0 0;
#X connect 4 0 9 0;
#X connect 5 0 6 0;
#X connect 5 1 4 2;
#X connect 6 0 4 0;
#X connect 9 0 3 0;
#X connect 9 1 14 0;
#X connect 11 0 1 0;
#X connect 13 0 1 0;
#X connect 14 0 16 0;
#X connect 14 1 15 1;
#X connect 14 2 15 2;
#X connect 15 0 8 0;
#X connect 16 0 15 0;
#X restore 146 60 pd set-oscillator;
#N canvas 69 207 1371 589 set-envelopes 0;
#X obj 122 79 r \$1-add-\$3-freq-env;
#X obj 295 451 s;
#X obj 317 398 pack 0 \$1;
#X msg 317 425 symbol \$1-add-\$2-amp-env;
#X obj 262 197 j-for-loop;
#X obj 262 175 f \$2;
#X text 299 175 partial number;
#X obj 261 138 bng 15 250 50 0 empty empty empty 17 7 0 10 #fcfcfc
#000000 #000000;
#X obj 342 102 r \$0-set-algos;
#X obj 262 218 t a a;
#X obj 224 309 / 120;
#X obj 231 255 t a a;
#X obj 224 330 pack 0 0;
#X obj 272 309 * 1.1;
#X obj 680 458 s;
#X obj 702 405 pack 0 \$1;
#X obj 647 204 j-for-loop;
#X obj 647 182 f \$2;
#X text 684 182 partial number;
#X obj 646 145 bng 15 250 50 0 empty empty empty 17 7 0 10 #fcfcfc
#000000 #000000;
#X obj 727 109 r \$0-set-algos;
#X obj 647 225 t a a;
#X obj 609 316 / 120;
#X obj 616 262 t a a;
#X obj 609 337 pack 0 0;
#X obj 657 316 * 1.1;
#X msg 702 432 symbol \$1-add-\$2-freq-env;
#X obj 1022 441 s;
#X obj 1044 388 pack 0 \$1;
#X obj 989 187 j-for-loop;
#X obj 989 165 f \$2;
#X text 1026 165 partial number;
#X obj 988 128 bng 15 250 50 0 empty empty empty 17 7 0 10 #fcfcfc
#000000 #000000;
#X obj 1069 92 r \$0-set-algos;
#X obj 989 208 t a a;
#X msg 1044 415 symbol \$1-add-\$2-freq-depth;
#X obj 968 262 swap \$2;
#X obj 968 283 -;
#X obj 968 304 / \$2;
#X obj 374 49 route att1 attT1 att2 attT2 dec sus1 susT1 sus2 susT2
rel1 relT1 rel2 relT2 loop, f 91;
#X msg 612 370 0.7 5 1 5 50 0.7 250 0.5 250 0.1 1000 0.5 1000 1;
#X msg 227 363 0.7 5 1 5 50 0.7 250 0.5 250 0.1 1000 0.5 1000 1;
#X obj 968 325 * 1000;
#X connect 2 0 3 0;
#X connect 3 0 1 1;
#X connect 4 0 9 0;
#X connect 5 0 4 0;
#X connect 7 0 5 0;
#X connect 8 0 5 0;
#X connect 9 0 11 0;
#X connect 9 1 2 0;
#X connect 10 0 12 0;
#X connect 11 0 10 0;
#X connect 11 1 13 0;
#X connect 12 0 41 0;
#X connect 13 0 12 1;
#X connect 15 0 26 0;
#X connect 16 0 21 0;
#X connect 17 0 16 0;
#X connect 19 0 17 0;
#X connect 20 0 17 0;
#X connect 21 0 23 0;
#X connect 21 1 15 0;
#X connect 22 0 24 0;
#X connect 23 0 22 0;
#X connect 23 1 25 0;
#X connect 24 0 40 0;
#X connect 25 0 24 1;
#X connect 26 0 14 1;
#X connect 28 0 35 0;
#X connect 29 0 34 0;
#X connect 30 0 29 0;
#X connect 32 0 30 0;
#X connect 33 0 30 0;
#X connect 34 0 36 0;
#X connect 34 1 28 0;
#X connect 35 0 27 1;
#X connect 36 0 37 0;
#X connect 36 1 37 1;
#X connect 37 0 38 0;
#X connect 38 0 42 0;
#X connect 40 0 14 0;
#X connect 41 0 1 0;
#X connect 42 0 27 0;
#X restore 144 111 pd set-envelopes;
#N canvas 66 93 703 535 set-pan 0;
#X obj 295 451 s;
#X obj 317 398 pack 0 \$1;
#X obj 262 197 j-for-loop;
#X obj 262 175 f \$2;
#X text 299 175 partial number;
#X obj 261 138 bng 15 250 50 0 empty empty empty 17 7 0 10 #fcfcfc
#000000 #000000;
#X obj 342 102 r \$0-set-algos;
#X msg 317 425 symbol \$1-add-\$2-pan;
#X obj 262 218 t b a;
#X msg 236 304 0.5;
#X connect 1 0 7 0;
#X connect 2 0 8 0;
#X connect 3 0 2 0;
#X connect 5 0 3 0;
#X connect 6 0 3 0;
#X connect 7 0 0 1;
#X connect 8 0 9 0;
#X connect 8 1 1 0;
#X connect 9 0 0 0;
#X restore 154 151 pd set-pan;
#X restore 352 167 pd algos;
#X obj 353 141 s \$0-set-algos;
#N canvas 637 343 803 426 filter 1;
#X obj 370 300 s \$1-hip-sharp;
#X obj 386 167 s \$1-filter-boost;
#X obj 158 176 s \$1-add-filter;
#X obj 175 290 s \$1-lop-sharp;
#X obj 161 93 hsl 128 15 0 127 0 0 empty empty empty -2 -8 0 10 #fcfcfc
#000000 #000000 0 1;
#X obj 158 113 / 127;
#X obj 400 94 hsl 128 15 0 127 0 0 empty empty empty -2 -8 0 10 #fcfcfc
#000000 #000000 0 1;
#X obj 397 114 / 127;
#X obj 172 203 hsl 128 15 0 127 0 0 empty empty empty -2 -8 0 10 #fcfcfc
#000000 #000000 0 1;
#X obj 169 223 / 127;
#X obj 411 204 hsl 128 15 0 127 0 0 empty empty empty -2 -8 0 10 #fcfcfc
#000000 #000000 0 1;
#X obj 408 224 / 127;
#X obj 169 244 * 24;
#X obj 169 265 i;
#X obj 408 245 * 24;
#X obj 408 266 i;
#X obj 158 154 pow 4;
#X connect 4 0 5 0;
#X connect 5 0 16 0;
#X connect 6 0 7 0;
#X connect 7 0 1 0;
#X connect 8 0 9 0;
#X connect 9 0 12 0;
#X connect 10 0 11 0;
#X connect 11 0 14 0;
#X connect 12 0 13 0;
#X connect 13 0 3 0;
#X connect 14 0 15 0;
#X connect 15 0 0 0;
#X connect 16 0 2 0;
#X restore 350 203 pd filter;
#N canvas 0 22 450 278 (subpatch) 0;
#X text 0 0 plugdatainfo <?xml version="1.0" encoding="UTF-8"?> <PlugDataInfo/>
;
#X coords 0 1 100 -1 1 1 1;
#X restore 0 0 graph;
#X obj 353 104 bng 25 250 50 0 empty empty empty 17 7 0 10 #e1e1e1
#808080 #5a5a5a;
#X connect 0 0 1 0;
#X connect 1 0 11 0;
#X connect 2 0 4 0;
#X connect 3 0 5 0;
#X connect 9 0 10 0;
#X connect 12 0 0 0;
#X connect 12 1 1 1;
#X connect 12 2 1 2;
#X connect 13 0 12 0;
#X connect 19 0 16 0;
