#N canvas 192 225 586 495 10;
#X obj 28 63 unpack, f 24;
#X obj 41 389 throw~ add-big-busL-\$2;
#X obj 41 348 catch~ add-busL-\$1;
#X obj 199 350 catch~ add-busR-\$1;
#X obj 199 389 throw~ add-big-busR-\$2;
#X msg 300 179 vis 4 1;
#X obj 28 293 s~ \$1-add-\$2-midi;
#X obj 268 225 clone additive-partial \$3 \$1 \$2 \$3;
#X text 320 21 \$1 voice number;
#X text 323 40 \$2 unique number;
#X text 323 57 \$3 number of partials;
#X obj 28 22 inlet;
#X text 74 18 midinote;
#X obj 97 204 r~ \$2-add-transpose;
#X obj 28 255 mtof~;
#X obj 169 95 s \$1-add-\$2-trigger;
#X obj 28 234 +~, f 12;
#X obj 61 122 r \$2-add-port;
#X obj 28 146 lop~ 5;
#X connect 0 0 18 0;
#X connect 0 1 15 0;
#X connect 2 0 1 0;
#X connect 3 0 4 0;
#X connect 5 0 7 0;
#X connect 11 0 0 0;
#X connect 13 0 16 1;
#X connect 14 0 6 0;
#X connect 16 0 14 0;
#X connect 17 0 18 1;
#X connect 18 0 16 0;
