#N canvas 445 25 644 788 10;
#X obj 41 290 *~;
#X obj 41 451 *~, f 58;
#X text 490 221 \$1 partial number;
#X obj 170 728 throw~ add-busR-\$2;
#X obj 41 729 throw~ add-busL-\$2;
#N canvas 200 289 906 583 filter 0;
#X obj 79 7 r \$3-add-filter;
#X obj 79 490 outlet~;
#X obj 334 190 - \$1;
#X obj 79 138 moses \$1, f 43;
#X obj 79 225 - \$1;
#X obj 79 200 pack \$1 0;
#X text 417 332 hipass sharpness;
#X text 217 296 low pass sharpness;
#X obj 79 337 pow, f 21;
#X obj 175 272 r \$3-lop-sharp;
#X obj 370 282 r \$3-hip-sharp;
#X obj 334 332 pow, f 11;
#X obj 370 303 t b a;
#X obj 175 292 t b a;
#X obj 708 100 r \$3-filter-boost;
#X obj 79 414 + 0, f 86;
#X msg 79 271 1 \$1;
#X obj 79 292 -;
#X msg 334 245 1 \$1;
#X obj 334 266 -;
#X obj 79 89 t a a, f 72;
#X obj 508 138 - \$1;
#X obj 508 116 moses \$1, f 14;
#X obj 589 141 - \$1;
#X obj 79 110 f;
#X obj 79 167 t b a, f 9;
#X msg 589 208 1 \$1;
#X obj 589 229 -;
#X obj 508 221 + 1;
#X obj 589 295 pow 4;
#X obj 589 316 * 0.3, f 16;
#X obj 708 121 clip 0 1;
#X obj 708 212 * 0.3;
#X obj 708 233 t b a;
#X msg 779 196 1 \$1;
#X obj 779 219 /;
#X obj 779 267 -;
#X msg 779 244 0.9 \$1;
#X obj 334 221 / \$4;
#X obj 79 249 / \$4;
#X obj 508 181 / 8;
#X obj 589 184 / 8;
#X obj 589 163 clip 0 8;
#X obj 508 160 clip -8 0;
#X obj 79 459 lop~ 4;
#X obj 735 151 inlet;
#X text 774 148 Max boost;
#X obj 79 28 * \$4;
#X connect 0 0 47 0;
#X connect 2 0 38 0;
#X connect 3 0 25 0;
#X connect 3 1 2 0;
#X connect 4 0 39 0;
#X connect 5 0 4 0;
#X connect 8 0 15 0;
#X connect 9 0 13 0;
#X connect 10 0 12 0;
#X connect 11 0 15 0;
#X connect 12 0 24 0;
#X connect 12 1 11 1;
#X connect 13 0 24 0;
#X connect 13 1 8 1;
#X connect 14 0 31 0;
#X connect 15 0 44 0;
#X connect 16 0 17 0;
#X connect 17 0 8 0;
#X connect 18 0 19 0;
#X connect 19 0 11 0;
#X connect 20 0 24 0;
#X connect 20 1 22 0;
#X connect 21 0 43 0;
#X connect 22 0 21 0;
#X connect 22 1 23 0;
#X connect 23 0 42 0;
#X connect 24 0 3 0;
#X connect 25 0 5 0;
#X connect 25 1 5 1;
#X connect 26 0 27 0;
#X connect 27 0 29 0;
#X connect 28 0 29 0;
#X connect 29 0 30 0;
#X connect 30 0 15 1;
#X connect 31 0 32 0;
#X connect 32 0 33 0;
#X connect 33 0 29 0;
#X connect 33 1 30 1;
#X connect 34 0 35 0;
#X connect 35 0 37 0;
#X connect 36 0 32 1;
#X connect 37 0 36 0;
#X connect 38 0 18 0;
#X connect 39 0 16 0;
#X connect 40 0 28 0;
#X connect 41 0 26 0;
#X connect 42 0 41 0;
#X connect 43 0 40 0;
#X connect 44 0 1 0;
#X connect 45 0 34 0;
#X connect 47 0 20 0;
#X restore 374 569 pd filter;
#X obj 41 555 /~;
#X obj 41 600 *~, f 56;
#X obj 41 3 r~ \$2-add-\$3-midi;
#X text 90 630 head room;
#X text 496 249 \$2 voice number;
#X text 491 275 \$3 unique number;
#X text 491 302 \$4 number of partials;
#X obj 56 529 lop~ 5;
#X obj 374 263 abs;
#X obj 41 631 *~ 0.5, f 19;
#X obj 195 3 inlet;
#X text 230 2 dummy;
#X obj 56 55 t a a, f 44;
#X obj 41 424 osc~;
#X obj 41 401 +~, f 11;
#X obj 104 376 *~;
#X obj 104 234 r \$2-add-\$3-trigger;
#X obj 104 330 j-7-env~;
#X obj 386 422 j-7-env~;
#X obj 104 258 t a a, f 30;
#X obj 431 486 switch~;
#X obj 56 232 vline~;
#X obj 458 466 s \$0-switch;
#X obj 431 443 t a a;
#X obj 56 207 pack 0 10;
#X obj 107 184 r \$2-add-\$3-oscSlope;
#X obj 56 499 r \$1-add-\$3-max-vol;
#X obj 56 26 r \$1-add-\$3-index;
#X obj 119 353 r \$1-add-\$3-freq-depth;
#X obj 149 294 r \$1-add-\$3-freq-env;
#X obj 431 386 r \$1-add-\$3-amp-env;
#N canvas 0 50 450 300 pan 0;
#X obj 33 9 inlet~;
#X obj 33 145 *~;
#X obj 116 146 *~;
#X obj 33 196 outlet~;
#X obj 116 196 outlet~;
#X obj 125 8 inlet;
#X obj 125 29 * 1.5708;
#X obj 125 50 t a a, f 10;
#X obj 125 71 cos;
#X obj 182 70 sin;
#X connect 0 0 1 0;
#X connect 0 0 2 0;
#X connect 1 0 3 0;
#X connect 2 0 4 0;
#X connect 5 0 6 0;
#X connect 6 0 7 0;
#X connect 7 0 8 0;
#X connect 7 1 9 0;
#X connect 8 0 1 1;
#X connect 9 0 2 1;
#X restore 41 679 pd pan - - - - - - - -;
#X obj 170 647 r \$1-add-\$3-pan;
#X obj 158 76 r \$0-switch;
#X obj 158 97 == 0;
#X obj 56 76 t a a, f 10;
#X obj 113 119 spigot 1;
#X obj 56 118 spigot 0;
#X connect 0 0 20 0;
#X connect 1 0 6 0;
#X connect 5 0 7 1;
#X connect 6 0 7 0;
#X connect 7 0 15 0;
#X connect 8 0 0 0;
#X connect 13 0 6 1;
#X connect 14 0 5 0;
#X connect 15 0 37 0;
#X connect 18 0 41 0;
#X connect 18 1 14 0;
#X connect 19 0 1 0;
#X connect 20 0 19 0;
#X connect 21 0 20 1;
#X connect 22 0 25 0;
#X connect 23 0 21 0;
#X connect 24 0 1 1;
#X connect 24 1 29 0;
#X connect 25 0 23 0;
#X connect 25 1 24 0;
#X connect 27 0 0 1;
#X connect 29 0 26 0;
#X connect 29 1 28 0;
#X connect 30 0 27 0;
#X connect 31 0 30 1;
#X connect 32 0 13 0;
#X connect 33 0 18 0;
#X connect 34 0 21 1;
#X connect 35 0 23 2;
#X connect 36 0 24 2;
#X connect 37 0 4 0;
#X connect 37 1 3 0;
#X connect 38 0 37 1;
#X connect 39 0 40 0;
#X connect 39 0 43 1;
#X connect 40 0 42 1;
#X connect 41 0 43 0;
#X connect 41 1 42 0;
#X connect 42 0 27 0;
#X connect 43 0 30 0;
