#N canvas 632 319 640 478 12;
#X obj 24 19 inlet;
#X obj 24 97 unpack;
#X obj 64 268 outlet~;
#N canvas 352 133 752 598 drum 0;
#X obj 27 25 inlet;
#X text 76 24 trigger;
#X obj 69 407 *~, f 13;
#X text 326 270 amplitude;
#X obj 69 235 +~, f 12;
#X obj 69 379 *~ 0.5;
#X obj 191 529 hip~ 5;
#X obj 191 553 outlet~;
#X obj 44 128 r \$0-hz;
#X obj 203 156 r \$0-depth;
#X obj 212 222 r \$0-att;
#X obj 253 249 r \$0-dec;
#X obj 488 80 inlet;
#X text 532 76 duck;
#X obj 146 108 vline~;
#X obj 146 132 pow~ 2;
#X obj 31 49 / 127;
#X obj 31 73 sqrt;
#X msg 172 303 \$1 \$2 \, 0 \$3 \$2;
#X obj 172 333 vline~;
#X obj 172 357 pow~ 2;
#X msg 488 158 0 3;
#X obj 44 180 lop~ 1000;
#X obj 25 315 osc~ 400;
#X obj 151 201 *~ 1000;
#X msg 145 65 \$1 3 \, 0.25 3 3 \, 0 5 8 \, 0.05 20 11;
#X obj 172 274 pack 1 3 300;
#X obj 89 317 osc~ 400;
#X obj 89 293 *~ 5;
#X obj 89 345 /~ 24;
#X obj 213 100 0.25;
#X obj 502 416 vline~;
#X obj 502 440 pow~ 2;
#X obj 400 343 r \$0-sub-hz;
#X obj 400 407 lop~ 1000;
#X obj 400 470 *~, f 15;
#X obj 502 353 del 100;
#X msg 540 308 stop;
#X obj 33 99 t b a b b;
#X obj 400 494 *~ 0.5;
#X obj 400 446 osc~ 400;
#X msg 502 387 1 20 \, 0 125 20;
#X obj 215 390 noise~;
#X obj 217 500 *~;
#X obj 306 389 vline~;
#X obj 274 330 t b b;
#X obj 215 414 *~ 0.5;
#X obj 217 477 vcf~ 5, f 12;
#X msg 306 357 1 1 \, 0 10 1;
#X obj 44 152 +;
#X obj 298 133 r \$0-detune;
#X obj 488 104 t b;
#N canvas 760 296 450 523 detune 0;
#X obj 140 251 - 1;
#X obj 140 275 mtof;
#X obj 140 299 -, f 7;
#X obj 186 274 mtof;
#X obj 140 218 t a a;
#X obj 140 323 abs;
#X obj 242 217 t a a;
#X obj 242 308 -, f 7;
#X obj 288 273 mtof;
#X obj 242 274 mtof;
#X obj 242 241 + 1;
#X obj 242 332 abs;
#X obj 52 195 moses 0;
#X obj 52 5 r \$0-detune;
#X obj 165 7 r \$0-hz;
#X obj 140 151 f 45;
#X obj 52 117 t a b, f 13;
#X obj 140 175 t a a, f 14;
#X obj 52 219 abs;
#X obj 52 373 *;
#X obj 106 375 *;
#X obj 52 427 outlet;
#X obj 52 89 f;
#X obj 165 31 t b a;
#X connect 0 0 1 0;
#X connect 1 0 2 0;
#X connect 2 0 5 0;
#X connect 3 0 2 1;
#X connect 4 0 0 0;
#X connect 4 1 3 0;
#X connect 5 0 19 1;
#X connect 6 0 10 0;
#X connect 6 1 8 0;
#X connect 7 0 11 0;
#X connect 8 0 7 1;
#X connect 9 0 7 0;
#X connect 10 0 9 0;
#X connect 11 0 20 1;
#X connect 12 0 18 0;
#X connect 12 1 20 0;
#X connect 13 0 22 0;
#X connect 14 0 23 0;
#X connect 15 0 17 0;
#X connect 16 0 12 0;
#X connect 16 1 15 0;
#X connect 17 0 4 0;
#X connect 17 1 6 0;
#X connect 18 0 19 0;
#X connect 19 0 21 0;
#X connect 20 0 21 0;
#X connect 22 0 16 0;
#X connect 23 0 22 0;
#X connect 23 1 15 1;
#X restore 400 162 pd detune;
#X obj 306 447 +~ 3000;
#X obj 306 423 *~ 900;
#X connect 0 0 16 0;
#X connect 2 0 6 0;
#X connect 4 0 23 0;
#X connect 4 0 28 0;
#X connect 5 0 2 0;
#X connect 6 0 7 0;
#X connect 8 0 49 0;
#X connect 9 0 24 1;
#X connect 10 0 26 1;
#X connect 11 0 26 2;
#X connect 12 0 51 0;
#X connect 14 0 15 0;
#X connect 15 0 24 0;
#X connect 16 0 17 0;
#X connect 17 0 38 0;
#X connect 18 0 19 0;
#X connect 19 0 20 0;
#X connect 20 0 2 1;
#X connect 21 0 19 0;
#X connect 22 0 4 0;
#X connect 23 0 5 0;
#X connect 24 0 4 1;
#X connect 25 0 14 0;
#X connect 26 0 18 0;
#X connect 27 0 29 0;
#X connect 28 0 27 0;
#X connect 29 0 5 0;
#X connect 30 0 23 1;
#X connect 30 0 27 1;
#X connect 30 0 40 1;
#X connect 31 0 32 0;
#X connect 32 0 35 1;
#X connect 33 0 34 0;
#X connect 34 0 40 0;
#X connect 35 0 39 0;
#X connect 36 0 41 0;
#X connect 37 0 36 0;
#X connect 38 0 26 0;
#X connect 38 1 25 0;
#X connect 38 2 30 0;
#X connect 38 3 37 0;
#X connect 38 3 36 0;
#X connect 38 3 45 0;
#X connect 40 0 35 0;
#X connect 41 0 31 0;
#X connect 42 0 46 0;
#X connect 43 0 5 0;
#X connect 44 0 43 1;
#X connect 44 0 54 0;
#X connect 45 1 48 0;
#X connect 46 0 47 0;
#X connect 47 0 43 0;
#X connect 48 0 44 0;
#X connect 49 0 22 0;
#X connect 50 0 49 1;
#X connect 51 0 21 0;
#X connect 53 0 47 1;
#X connect 54 0 53 0;
#X restore 64 185 pd drum;
#X obj 182 243 s \$0-hz;
#X obj 161 131 s \$0-depth;
#X obj 226 186 s \$0-att;
#X obj 270 105 s \$0-dec;
#X obj 63 128 sel -1 0;
#X obj 341 101 s \$0-sub-hz;
#X obj 24 43 route note pitch depth att dec sub detune, f 71;
#X obj 343 73 s \$0-detune;
#X connect 0 0 10 0;
#X connect 1 1 8 0;
#X connect 3 0 2 0;
#X connect 8 0 3 1;
#X connect 8 2 3 0;
#X connect 10 0 1 0;
#X connect 10 1 4 0;
#X connect 10 2 5 0;
#X connect 10 3 6 0;
#X connect 10 4 7 0;
#X connect 10 5 9 0;
#X connect 10 6 11 0;
