#N canvas 121 146 950 562 12;
#X obj 24 19 inlet;
#X obj 375 140 sel 0;
#X obj 407 421 outlet~;
#N canvas 684 31 633 707 root 0;
#X obj 351 81 inlet;
#X text 402 85 trigger;
#X obj 101 568 outlet~;
#X obj 351 105 t b b;
#X obj 102 233 noise~;
#X obj 166 165 r \$0-cut;
#X obj 102 492 *~, f 36;
#X obj 351 415 vline~;
#X obj 351 439 *~;
#X obj 351 463 *~;
#X obj 504 190 r \$0-att;
#X obj 83 100 r \$0-rez;
#X obj 206 265 vline~;
#X obj 206 289 *~;
#X obj 206 313 *~;
#X obj 483 273 r \$0-rel;
#X obj 219 22 r \$0-vel;
#X obj 279 92 sqrt;
#X obj 279 116 sqrt;
#X obj 268 187 f 1;
#X obj 398 310 pack 0 0 300;
#X obj 279 140 t a a;
#X obj 427 172 / 2;
#X obj 427 196 + 0.5;
#X obj 398 286 f 0.9;
#X obj 219 46 clip 0 1;
#X msg 366 375 0 0 \, \$1 \$2 0 \, 0 \$3 \$2;
#X obj 102 537 *~ 2;
#X obj 207 365 +~ 6000;
#X obj 207 341 *~ 4000;
#X obj 137 440 *~ 0.5;
#X msg 207 227 0 0 \, \$1 1 0 \, 0 400 1;
#X obj 137 416 vcf~ 2;
#X obj 80 331 vcf~ 4;
#X connect 0 0 3 0;
#X connect 3 0 19 0;
#X connect 3 1 24 0;
#X connect 4 0 33 0;
#X connect 5 0 28 1;
#X connect 6 0 27 0;
#X connect 7 0 8 0;
#X connect 7 0 8 1;
#X connect 8 0 9 0;
#X connect 8 0 9 1;
#X connect 9 0 6 1;
#X connect 10 0 20 1;
#X connect 12 0 13 0;
#X connect 12 0 13 1;
#X connect 13 0 14 0;
#X connect 13 0 14 1;
#X connect 14 0 29 0;
#X connect 15 0 20 2;
#X connect 16 0 25 0;
#X connect 17 0 18 0;
#X connect 18 0 21 0;
#X connect 19 0 31 0;
#X connect 20 0 26 0;
#X connect 21 0 19 1;
#X connect 21 1 22 0;
#X connect 22 0 23 0;
#X connect 23 0 24 1;
#X connect 24 0 20 0;
#X connect 25 0 17 0;
#X connect 26 0 7 0;
#X connect 27 0 2 0;
#X connect 28 0 32 1;
#X connect 28 0 33 1;
#X connect 29 0 28 0;
#X connect 30 0 6 0;
#X connect 31 0 12 0;
#X connect 32 0 30 0;
#X connect 33 0 32 0;
#X restore 407 207 pd root;
#X obj 65 73 s \$0-cut;
#X obj 407 173 t b;
#X obj 104 101 s \$0-rez;
#X obj 181 101 s \$0-att;
#X obj 226 78 s \$0-rel;
#X obj 142 73 s \$0-vel;
#X obj 24 43 route note cut rez vel att rel, f 37;
#X connect 0 0 10 0;
#X connect 1 1 5 0;
#X connect 3 0 2 0;
#X connect 5 0 3 0;
#X connect 10 1 4 0;
#X connect 10 2 6 0;
#X connect 10 3 9 0;
#X connect 10 4 7 0;
#X connect 10 5 8 0;
#X connect 10 6 1 0;
