#N canvas 254 79 669 679 10;
#X text 269 45 Arg2: voice number;
#X text 273 28 Arg1: partial number;
#X obj 48 288 /~, f 18;
#X obj 48 329 *~, f 34;
#X obj 48 580 outlet~;
#X obj 250 304 *~, f 16;
#X obj 364 270 r \$2-\$3-vel;
#X obj 250 104 r \$2-\$3-env;
#X obj 372 117 r \$2-\$3-env-off;
#X obj 133 78 r \$1-\$3-index;
#N canvas 4 25 1194 847 get-lines-env 0;
#X msg 207 303 setNo 0;
#X obj 127 303 max 1;
#X obj 127 282 until;
#X obj 73 243 route bang;
#X obj 131 262 t a b;
#X obj 310 147 text define env-lol-\$0;
#X obj 73 220 text size env-lol-\$0;
#X obj 102 181 text fromlist env-lol-\$0;
#X obj 127 346 text get env-lol-\$0;
#X obj 100 110 f \$1;
#X obj 100 131 - 1;
#X obj 73 81 t b b b;
#X msg 152 104 clear;
#X obj 75 26 inlet;
#X obj 127 367 outlet;
#X obj 102 160 text get \$3-env-table;
#X obj 127 325 j-loop 1000 1;
#X connect 1 0 16 0;
#X connect 2 0 1 0;
#X connect 3 1 4 0;
#X connect 4 0 2 0;
#X connect 4 1 0 0;
#X connect 6 0 3 0;
#X connect 8 0 14 0;
#X connect 9 0 10 0;
#X connect 10 0 15 0;
#X connect 11 0 6 0;
#X connect 11 1 9 0;
#X connect 11 2 12 0;
#X connect 12 0 5 0;
#X connect 13 0 11 0;
#X connect 15 0 7 0;
#X connect 16 0 8 0;
#X restore 250 167 pd get-lines-env;
#N canvas 4 25 1194 847 get-lines-env-off 0;
#X msg 207 303 setNo 0;
#X obj 127 303 max 1;
#X obj 127 282 until;
#X obj 73 243 route bang;
#X obj 131 262 t a b;
#X obj 100 110 f \$1;
#X obj 100 131 - 1;
#X obj 73 81 t b b b;
#X msg 152 104 clear;
#X obj 75 26 inlet;
#X obj 127 367 outlet;
#X obj 310 147 text define env-lol2-\$0;
#X obj 73 220 text size env-lol2-\$0;
#X obj 102 181 text fromlist env-lol2-\$0;
#X obj 127 346 text get env-lol2-\$0;
#X obj 102 160 text get \$3-env-table-off;
#X obj 127 325 j-loop 1000 1;
#X connect 1 0 16 0;
#X connect 2 0 1 0;
#X connect 3 1 4 0;
#X connect 4 0 2 0;
#X connect 4 1 0 0;
#X connect 5 0 6 0;
#X connect 6 0 15 0;
#X connect 7 0 12 0;
#X connect 7 1 5 0;
#X connect 7 2 8 0;
#X connect 8 0 11 0;
#X connect 9 0 7 0;
#X connect 12 0 3 0;
#X connect 14 0 10 0;
#X connect 15 0 13 0;
#X connect 16 0 14 0;
#X restore 372 170 pd get-lines-env-off;
#X obj 50 200 osc~;
#X obj 51 40 inlet~;
#X obj 50 158 *~;
#X obj 130 131 unpack 0 0;
#N canvas 453 129 987 694 filter 0;
#X obj 126 66 r \$3-org-freq;
#X obj 256 50 r \$3-org-rez;
#X obj 126 410 cos;
#X obj 126 140 t a b;
#X obj 175 196 - 1;
#X obj 175 175 f \$1;
#X obj 126 198 / 11;
#X obj 126 537 outlet;
#X obj 126 117 f;
#X obj 256 71 t b a;
#X obj 126 383 * 1.5708;
#X obj 175 279 * 0.083333;
#X obj 126 322 -;
#X obj 126 438 pow 1, f 20;
#X obj 425 65 inlet;
#X obj 380 323 r \$3-org-boost;
#X obj 425 126 swap 1;
#X obj 425 147 /;
#X obj 425 168 swap 1;
#X obj 425 189 -;
#X connect 0 0 8 0;
#X connect 1 0 9 0;
#X connect 2 0 13 0;
#X connect 3 0 6 0;
#X connect 3 1 5 0;
#X connect 4 0 11 0;
#X connect 5 0 4 0;
#X connect 6 0 12 0;
#X connect 8 0 3 0;
#X connect 9 0 8 0;
#X connect 9 1 13 1;
#X connect 10 0 2 0;
#X connect 11 0 12 1;
#X connect 12 0 10 0;
#X connect 13 0 7 0;
#X connect 14 0 16 0;
#X connect 16 0 17 0;
#X connect 16 1 17 1;
#X connect 17 0 18 0;
#X connect 18 0 19 0;
#X connect 18 1 19 1;
#X restore 130 405 pd filter;
#X obj 130 456 line~;
#X obj 130 426 pack 0 20;
#X text 267 63 Arg3: synth number;
#X obj 49 492 *~;
#X obj 178 247 t a a;
#X obj 250 261 j-line-tempo~ 2;
#X connect 2 0 3 0;
#X connect 3 0 20 0;
#X connect 5 0 3 1;
#X connect 6 0 5 1;
#X connect 7 0 10 0;
#X connect 8 0 11 0;
#X connect 9 0 15 0;
#X connect 10 0 22 0;
#X connect 11 0 22 0;
#X connect 12 0 2 0;
#X connect 13 0 14 0;
#X connect 14 0 12 0;
#X connect 15 0 14 1;
#X connect 15 1 21 0;
#X connect 16 0 18 0;
#X connect 17 0 20 1;
#X connect 18 0 17 0;
#X connect 20 0 4 0;
#X connect 21 0 2 1;
#X connect 22 0 5 0;
