#N canvas 179 25 1085 775 10;
#X obj 41 281 pack 0 0 0, f 11;
#X obj 31 580 catch~ voice-out;
#X text 151 582 Sound out;
#X obj 41 240 poly 4 1, f 11;
#X obj 541 230 until;
#X obj 541 188 f 12;
#X obj 541 209 max 1;
#X msg 610 250 setNo 0;
#X obj 541 166 t b b;
#X obj 541 300 t a a;
#X obj 541 365 + 1;
#X obj 641 169 text define 1-index;
#X obj 598 346 text get 1-index;
#X obj 363 630 text define 1-env-table;
#X obj 540 630 text define 1-env-table-off;
#X msg 359 598 clear;
#X msg 406 580 read env.txt;
#N canvas 4 50 950 672 fill-env-tables 0;
#X obj 91 336 text set 1-env-table;
#X floatatom 130 315 5 0 0 0 - - -;
#X obj 214 188 text define temp;
#X obj 91 270 text tolist temp;
#X msg 214 165 clear;
#X obj 90 125 t b b b b;
#X obj 63 112 bng 15 250 50 0 empty empty empty 17 7 0 10 -262144 -1
-1;
#X obj 107 231 text insert temp;
#X obj 107 181 t a b;
#X obj 127 206 1e+09;
#X floatatom 523 300 5 0 0 0 - - -;
#X msg 607 150 clear;
#X obj 483 110 t b b b b;
#X obj 500 166 t a b;
#X obj 520 191 1e+09;
#X obj 607 173 text define temp2;
#X obj 500 216 text insert temp2;
#X obj 484 255 text tolist temp2;
#X obj 484 321 text set 1-env-table-off;
#X obj 77 56 bng 15 250 50 0 empty empty empty 17 7 0 10 -262144 -1
-1;
#X obj 128 99 t b a;
#X msg 107 160 1 8 \, 0.5 200 8;
#X obj 586 72 t b a;
#X obj 601 11 bng 15 250 50 0 empty empty empty 17 7 0 10 -262144 -1
-1;
#X msg 500 145 0 100;
#X obj 128 78 j-loop 12 1;
#X obj 586 51 j-loop 12 1;
#X connect 1 0 0 1;
#X connect 3 0 0 0;
#X connect 4 0 2 0;
#X connect 5 0 3 0;
#X connect 5 1 21 0;
#X connect 5 3 4 0;
#X connect 6 0 5 0;
#X connect 8 0 7 0;
#X connect 8 1 9 0;
#X connect 9 0 7 1;
#X connect 10 0 18 1;
#X connect 11 0 15 0;
#X connect 12 0 17 0;
#X connect 12 1 24 0;
#X connect 12 3 11 0;
#X connect 13 0 16 0;
#X connect 13 1 14 0;
#X connect 14 0 16 1;
#X connect 17 0 18 0;
#X connect 19 0 25 0;
#X connect 20 0 5 0;
#X connect 20 1 1 0;
#X connect 21 0 8 0;
#X connect 22 0 12 0;
#X connect 22 1 10 0;
#X connect 23 0 26 0;
#X connect 24 0 13 0;
#X connect 25 0 20 0;
#X connect 26 0 22 0;
#X restore 860 487 pd fill-env-tables;
#X msg 541 454 \; \$1-\$2-index \$3 \$4;
#X obj 541 395 pack 0 1;
#X obj 541 416 list append;
#X msg 641 141 read index1.txt;
#X msg 340 519 write index1.txt;
#X msg 417 603 write env.txt;
#X msg 568 600 write env-off.txt;
#X msg 569 573 read env-off.txt;
#X obj 50 27 inlet;
#X text 90 30 messages;
#X obj 50 69 s \$0-note;
#X obj 41 208 r \$0-note;
#X obj 541 279 j-loop 12 1;
#X obj 31 601 outlet~;
#X obj 94 172 s \$0-init;
#X obj 541 81 r \$0-init;
#X obj 402 557 r \$0-init;
#X obj 568 542 r \$0-init;
#X obj 189 128 s \$1-org-rez;
#X obj 41 325 clone -s 1 j-org-voice 4 \$1;
#X obj 143 158 s \$1-org-freq;
#X obj 226 99 s \$1-org-transpose;
#X obj 541 102 t b b;
#X obj 50 48 route note init filtPole filtRez tpose bpm, f 48;
#X obj 272 76 s \$0-bpm;
#X connect 0 0 37 0;
#X connect 1 0 31 0;
#X connect 3 0 0 0;
#X connect 3 1 0 1;
#X connect 3 2 0 2;
#X connect 4 0 30 0;
#X connect 5 0 6 0;
#X connect 6 0 4 0;
#X connect 8 0 5 0;
#X connect 8 1 7 0;
#X connect 9 0 10 0;
#X connect 9 1 12 0;
#X connect 10 0 19 0;
#X connect 12 0 20 1;
#X connect 15 0 13 0;
#X connect 16 0 13 0;
#X connect 19 0 20 0;
#X connect 20 0 18 0;
#X connect 21 0 11 0;
#X connect 25 0 14 0;
#X connect 26 0 41 0;
#X connect 29 0 3 0;
#X connect 30 0 9 0;
#X connect 33 0 40 0;
#X connect 34 0 16 0;
#X connect 35 0 25 0;
#X connect 40 0 8 0;
#X connect 40 1 21 0;
#X connect 41 0 28 0;
#X connect 41 1 32 0;
#X connect 41 2 38 0;
#X connect 41 3 36 0;
#X connect 41 4 39 0;
#X connect 41 5 42 0;
