#N canvas 709 140 671 477 12;
#X obj 24 19 inlet;
#X obj 24 97 unpack;
#X obj 63 136 sel 0;
#X obj 95 417 outlet~;
#N canvas 684 31 633 707 root 0;
#X obj 351 81 inlet;
#X text 402 85 trigger;
#X obj 101 508 outlet~;
#X obj 351 105 t b b;
#X obj 102 217 noise~;
#X obj 172 143 r \$0-cut;
#X obj 219 192 r \$0-width;
#X obj 102 408 *~ 0.5;
#X obj 219 216 t b a;
#X obj 172 167 t a a;
#X obj 102 432 *~, f 36;
#N canvas 610 310 690 316 envelopes 0;
#N canvas 528 263 912 476 vol-env 0;
#X obj 42 158 vline~;
#X obj 42 182 *~;
#X obj 42 206 *~;
#X obj 42 32 inlet;
#X text 88 30 bang;
#X obj 42 96 f 10;
#X msg 42 129 1 0.2 \, 0 \$1 0.2;
#X obj 42 230 outlet~;
#X obj 140 38 inlet;
#X text 193 37 env;
#X connect 0 0 1 0;
#X connect 0 0 1 1;
#X connect 1 0 2 0;
#X connect 1 0 2 1;
#X connect 2 0 7 0;
#X connect 3 0 5 0;
#X connect 5 0 6 0;
#X connect 6 0 0 0;
#X connect 8 0 5 1;
#X restore 62 190 pd vol-env;
#N canvas 528 263 912 476 vol-env 0;
#X obj 42 158 vline~;
#X obj 42 182 *~;
#X obj 42 206 *~;
#X obj 42 32 inlet;
#X text 88 30 bang;
#X obj 42 96 f 10;
#X msg 42 129 1 0.2 \, 0 \$1 0.2;
#X obj 42 230 outlet~;
#X obj 140 38 inlet;
#X text 193 37 env;
#X connect 0 0 1 0;
#X connect 0 0 1 1;
#X connect 1 0 2 0;
#X connect 1 0 2 1;
#X connect 2 0 7 0;
#X connect 3 0 5 0;
#X connect 5 0 6 0;
#X connect 6 0 0 0;
#X connect 8 0 5 1;
#X restore 162 190 pd vol-env;
#N canvas 528 263 912 476 vol-env 0;
#X obj 42 158 vline~;
#X obj 42 182 *~;
#X obj 42 206 *~;
#X obj 42 32 inlet;
#X text 88 30 bang;
#X msg 42 129 1 0.2 \, 0 \$1 0.2;
#X obj 42 230 outlet~;
#X obj 140 38 inlet;
#X text 193 37 env;
#X obj 42 97 f 20;
#X connect 0 0 1 0;
#X connect 0 0 1 1;
#X connect 1 0 2 0;
#X connect 1 0 2 1;
#X connect 2 0 6 0;
#X connect 3 0 9 0;
#X connect 5 0 0 0;
#X connect 7 0 9 1;
#X connect 9 0 5 0;
#X restore 273 191 pd vol-env;
#N canvas 528 263 912 476 vol-env 0;
#X obj 42 158 vline~;
#X obj 42 182 *~;
#X obj 42 206 *~;
#X obj 42 32 inlet;
#X text 88 30 bang;
#X obj 42 96 f 10;
#X msg 42 129 1 0.2 \, 0 \$1 0.2;
#X obj 42 230 outlet~;
#X obj 140 38 inlet;
#X text 193 37 env;
#X connect 0 0 1 0;
#X connect 0 0 1 1;
#X connect 1 0 2 0;
#X connect 1 0 2 1;
#X connect 2 0 7 0;
#X connect 3 0 5 0;
#X connect 5 0 6 0;
#X connect 6 0 0 0;
#X connect 8 0 5 1;
#X restore 393 191 pd vol-env;
#X obj 153 250 outlet~;
#X obj 30 28 inlet;
#X obj 30 52 t b b;
#X obj 142 119 del 20;
#X obj 142 143 t b b;
#X obj 223 120 del 20;
#X obj 223 144 t b b;
#X obj 303 140 del 20;
#X text 269 6 env;
#X obj 518 88 r \$0-decay;
#X obj 413 55 r \$0-ratio;
#X obj 518 112 t b a;
#X obj 519 150 * 4;
#X obj 399 126 * 1;
#X obj 413 79 t b a;
#X obj 188 5 r \$0-env;
#X obj 398 156 f 20;
#X obj 188 29 t a a a a, f 29;
#X connect 0 0 4 0;
#X connect 1 0 4 0;
#X connect 2 0 4 0;
#X connect 3 0 4 0;
#X connect 5 0 6 0;
#X connect 6 0 0 0;
#X connect 6 1 7 0;
#X connect 7 0 8 0;
#X connect 8 0 1 0;
#X connect 8 1 9 0;
#X connect 9 0 10 0;
#X connect 10 0 2 0;
#X connect 10 1 11 0;
#X connect 11 0 3 0;
#X connect 13 0 15 0;
#X connect 14 0 18 0;
#X connect 15 0 16 0;
#X connect 15 1 16 1;
#X connect 16 0 3 1;
#X connect 17 0 20 0;
#X connect 18 0 17 0;
#X connect 18 1 17 1;
#X connect 19 0 21 0;
#X connect 20 0 2 1;
#X connect 20 0 1 1;
#X connect 20 0 0 1;
#X connect 20 0 16 0;
#X connect 21 0 7 1;
#X connect 21 1 9 1;
#X connect 21 2 11 1;
#X connect 21 3 17 0;
#X restore 351 307 pd envelopes;
#X obj 204 262 + 500, f 7;
#X obj 102 250 hip~ 2000;
#X obj 102 324 lop~ 500, f 15;
#X obj 102 348 lop~ 500;
#X obj 102 274 hip~ 2000, f 11;
#X connect 0 0 3 0;
#X connect 3 0 11 0;
#X connect 4 0 13 0;
#X connect 5 0 9 0;
#X connect 6 0 8 0;
#X connect 7 0 10 0;
#X connect 8 0 12 0;
#X connect 8 1 12 1;
#X connect 9 0 13 1;
#X connect 9 0 16 1;
#X connect 9 1 12 0;
#X connect 10 0 2 0;
#X connect 11 0 10 1;
#X connect 12 0 14 1;
#X connect 12 0 15 1;
#X connect 13 0 16 0;
#X connect 14 0 15 0;
#X connect 15 0 7 0;
#X connect 16 0 14 0;
#X restore 95 203 pd root;
#X obj 24 43 route note cut width env ratio decay;
#X obj 65 73 s \$0-cut;
#X obj 104 101 s \$0-width;
#X obj 142 73 s \$0-env;
#X obj 181 101 s \$0-ratio;
#X obj 226 78 s \$0-decay;
#X obj 95 169 t b;
#X connect 0 0 5 0;
#X connect 1 1 2 0;
#X connect 2 1 11 0;
#X connect 4 0 3 0;
#X connect 5 0 1 0;
#X connect 5 1 6 0;
#X connect 5 2 7 0;
#X connect 5 3 8 0;
#X connect 5 4 9 0;
#X connect 5 5 10 0;
#X connect 11 0 4 0;
