#N canvas 465 182 717 627 12;
#X obj 24 19 inlet;
#X obj 24 97 unpack;
#X obj 68 578 outlet~;
#N canvas 352 133 1006 598 drum 0;
#X obj 27 25 inlet;
#X text 76 24 trigger;
#X obj 69 263 osc~;
#X obj 69 317 *~, f 13;
#X text 326 270 amplitude;
#X obj 69 235 +~, f 12;
#X obj 69 287 *~ 0.5;
#X obj 69 451 hip~ 5;
#X obj 69 475 outlet~;
#X obj 69 97 r \$0-hz;
#X obj 186 156 r \$0-depth;
#X obj 226 186 r \$0-att;
#X obj 244 225 r \$0-dec;
#X obj 36 64 t a a;
#X obj 370 -28 inlet;
#X text 414 -32 duck;
#X msg 379 65 0 3;
#X obj 370 -4 t b;
#X obj 69 126 sig~ 125.5;
#X obj 157 269 j-pop-env~ 3 90;
#X obj 273 113 j-pop-env~ 1 3;
#X obj 150 112 j-pop-env~ 1 3;
#X obj 150 201 *~ 500;
#X connect 0 0 13 0;
#X connect 2 0 6 0;
#X connect 3 0 7 0;
#X connect 5 0 2 0;
#X connect 6 0 3 0;
#X connect 7 0 8 0;
#X connect 9 0 18 0;
#X connect 10 0 22 1;
#X connect 11 0 19 1;
#X connect 12 0 19 2;
#X connect 13 0 19 0;
#X connect 13 1 21 0;
#X connect 14 0 17 0;
#X connect 16 0 19 3;
#X connect 16 0 21 3;
#X connect 17 0 16 0;
#X connect 18 0 5 0;
#X connect 19 0 3 1;
#X connect 21 0 22 0;
#X connect 22 0 5 1;
#X restore 45 267 pd drum;
#X obj 74 70 s \$0-hz;
#X obj 161 131 s \$0-depth;
#X obj 226 186 s \$0-att;
#X obj 270 105 s \$0-dec;
#X obj 24 43 route note pitch depth att dec, f 47;
#X obj 63 128 sel -1 0;
#X obj 45 367 *~ 0.5;
#X obj 120 166 t b a;
#X obj 160 189 v \$0-midi;
#X obj 43 221 v \$0-midi;
#X obj 148 264 v \$0-midi;
#N canvas 351 131 1006 598 drum-2 0;
#X obj 27 25 inlet;
#X text 76 24 trigger;
#X obj 69 263 osc~;
#X obj 69 317 *~, f 13;
#X text 326 270 amplitude;
#X obj 69 235 +~, f 12;
#X obj 69 287 *~ 0.5;
#X obj 69 451 hip~ 5;
#X obj 69 475 outlet~;
#X obj 133 48 r \$0-hz;
#X obj 186 156 r \$0-depth;
#X obj 226 186 r \$0-att;
#X obj 244 225 r \$0-dec;
#X obj 36 64 t a a;
#X obj 370 -28 inlet;
#X text 414 -32 duck;
#X obj 370 -4 t b;
#X obj 69 126 sig~ 125.5;
#X obj 157 269 j-pop-env~ 3 100;
#X obj 150 113 j-pop-env~ 1 3;
#X obj 149 201 *~ 800;
#X obj 133 72 * 1.33333;
#X connect 0 0 13 0;
#X connect 2 0 6 0;
#X connect 3 0 7 0;
#X connect 5 0 2 0;
#X connect 6 0 3 0;
#X connect 7 0 8 0;
#X connect 9 0 21 0;
#X connect 10 0 20 1;
#X connect 11 0 18 1;
#X connect 12 0 18 2;
#X connect 13 0 18 0;
#X connect 13 1 19 0;
#X connect 14 0 16 0;
#X connect 16 0 19 3;
#X connect 16 0 18 3;
#X connect 17 0 5 0;
#X connect 18 0 3 1;
#X connect 19 0 20 0;
#X connect 20 0 5 1;
#X connect 21 0 17 0;
#X restore 152 293 pd drum-2;
#X obj 312 319 v \$0-midi;
#N canvas 352 133 1006 598 drum-2 0;
#X obj 27 25 inlet;
#X text 76 24 trigger;
#X obj 69 263 osc~;
#X obj 69 317 *~, f 13;
#X text 326 270 amplitude;
#X obj 69 235 +~, f 12;
#X obj 69 287 *~ 0.5;
#X obj 69 451 hip~ 5;
#X obj 69 475 outlet~;
#X obj 126 50 r \$0-hz;
#X obj 186 156 r \$0-depth;
#X obj 226 186 r \$0-att;
#X obj 244 225 r \$0-dec;
#X obj 36 64 t a a;
#X obj 370 -28 inlet;
#X text 414 -32 duck;
#X msg 379 65 0 3;
#X obj 370 -4 t b;
#X obj 69 126 sig~ 125.5;
#X obj 157 269 j-pop-env~ 3 50;
#X obj 150 201 *~ 2500;
#X obj 150 113 j-pop-env~ 1 3;
#X obj 120 76 * 2.66667;
#X connect 0 0 13 0;
#X connect 2 0 6 0;
#X connect 3 0 7 0;
#X connect 5 0 2 0;
#X connect 6 0 3 0;
#X connect 7 0 8 0;
#X connect 9 0 22 0;
#X connect 10 0 20 1;
#X connect 11 0 19 1;
#X connect 12 0 19 2;
#X connect 13 0 19 0;
#X connect 13 1 21 0;
#X connect 14 0 17 0;
#X connect 16 0 19 3;
#X connect 16 0 21 3;
#X connect 17 0 16 0;
#X connect 18 0 5 0;
#X connect 19 0 3 1;
#X connect 20 0 5 1;
#X connect 21 0 20 0;
#X connect 22 0 18 0;
#X restore 308 366 pd drum-2;
#X obj 308 390 *~ 0.05;
#X obj 147 240 del 23;
#X obj 285 285 del 45;
#X obj 152 317 *~ 0.15;
#X obj 88 458 delread~ \$0-pow 25;
#X obj 103 406 delwrite~ \$0-pow 25;
#X obj 232 593 outlet~;
#X obj 309 414 *~ 0.5;
#X obj 408 486 *~ 0.2;
#X obj 324 483 *~ 0.8;
#X obj 152 341 *~ 0.5;
#X obj 135 374 *~ 0.25;
#X obj 218 367 *~ 0.75;
#X obj 155 488 *~ 0.45;
#X obj 187 516 delread~ \$0-pow 24;
#X obj 187 540 *~ 0.4;
#X obj 187 564 *~ 0.5;
#X obj 87 510 *~ 0.25;
#X connect 0 0 8 0;
#X connect 1 1 9 0;
#X connect 3 0 10 0;
#X connect 8 0 1 0;
#X connect 8 1 4 0;
#X connect 8 2 5 0;
#X connect 8 3 6 0;
#X connect 8 4 7 0;
#X connect 9 0 3 1;
#X connect 9 0 15 1;
#X connect 9 2 11 0;
#X connect 10 0 2 0;
#X connect 10 0 23 0;
#X connect 10 0 24 0;
#X connect 11 0 13 0;
#X connect 11 0 19 0;
#X connect 11 0 20 0;
#X connect 11 1 12 0;
#X connect 13 0 3 0;
#X connect 14 0 15 0;
#X connect 15 0 21 0;
#X connect 16 0 17 0;
#X connect 17 0 18 0;
#X connect 18 0 25 0;
#X connect 18 0 10 0;
#X connect 19 0 14 0;
#X connect 20 0 16 0;
#X connect 21 0 10 0;
#X connect 21 0 28 0;
#X connect 22 0 31 0;
#X connect 22 0 35 0;
#X connect 25 0 26 0;
#X connect 25 0 27 0;
#X connect 26 0 24 0;
#X connect 27 0 2 0;
#X connect 28 0 29 0;
#X connect 28 0 30 0;
#X connect 29 0 2 0;
#X connect 30 0 24 0;
#X connect 31 0 23 0;
#X connect 32 0 33 0;
#X connect 33 0 34 0;
#X connect 34 0 24 0;
#X connect 35 0 2 0;
