#N canvas 451 237 530 458 12;
#X obj 24 19 inlet;
#X obj 24 97 unpack;
#X obj 63 136 sel 0;
#X obj 95 417 outlet~;
#N canvas 684 31 633 707 root 0;
#X obj 39 20 inlet;
#X text 90 24 trigger;
#X obj 81 454 outlet~;
#N canvas 0 25 450 300 pitch 0;
#X obj 82 240 +~;
#X obj 82 143 lop~ 20;
#X obj 170 144 vline~;
#X text 225 147 pitch;
#X obj 170 198 *~ 500;
#X obj 82 46 r \$0-pitch;
#X obj 82 264 outlet~;
#X obj 331 126 r \$0-pDepth;
#X obj 168 20 r \$0-vel;
#X obj 170 168 *~;
#X obj 168 44 / 127;
#X obj 168 68 sqrt;
#X obj 232 52 r \$0-pEnv;
#X obj 168 92 pack 0 10;
#X msg 170 117 \$1 0.2 \, 0 \$2 0.2;
#X obj 82 119 sig~ 100;
#X connect 0 0 6 0;
#X connect 1 0 0 0;
#X connect 2 0 9 0;
#X connect 2 0 9 1;
#X connect 4 0 0 1;
#X connect 5 0 15 0;
#X connect 7 0 4 1;
#X connect 8 0 10 0;
#X connect 9 0 4 0;
#X connect 10 0 11 0;
#X connect 11 0 13 0;
#X connect 12 0 13 1;
#X connect 13 0 14 0;
#X connect 14 0 2 0;
#X connect 15 0 1 0;
#X restore 81 122 pd pitch;
#N canvas 0 25 450 432 op-1 0;
#X obj 184 214 vline~;
#X obj 183 104 f 150;
#X obj 183 18 inlet;
#X text 229 23 trigger;
#X obj 183 42 t b;
#X obj 16 34 inlet~;
#X obj 117 321 outlet~;
#X obj 88 34 inlet~;
#X obj 215 64 r \$0-decay1;
#X obj 118 206 sig~ 1;
#X obj 117 297 j-pm-osc;
#X obj 184 238 *~;
#X msg 184 181 1 3 \, 0 \$1 3;
#X connect 0 0 11 0;
#X connect 0 0 11 1;
#X connect 1 0 12 0;
#X connect 2 0 4 0;
#X connect 4 0 1 0;
#X connect 5 0 10 0;
#X connect 7 0 10 2;
#X connect 8 0 1 1;
#X connect 9 0 10 1;
#X connect 10 0 6 0;
#X connect 11 0 10 3;
#X connect 12 0 0 0;
#X restore 81 341 pd op-1;
#N canvas 0 25 450 529 op-2 0;
#X obj 219 298 vline~;
#X obj 16 34 inlet~;
#X obj 108 400 outlet~;
#X obj 88 34 inlet~;
#X obj 250 148 r \$0-decay2;
#X obj 122 158 r \$0-ratio;
#X obj 122 182 sig~ 2.33333;
#X obj 108 376 j-pm-osc;
#X obj 122 206 lop~ 20;
#X obj 219 322 *~;
#X obj 219 346 *~;
#X obj 227 46 r \$0-vel;
#X obj 227 70 / 127;
#X obj 227 94 sqrt;
#X obj 227 118 sqrt;
#X obj 218 188 pack 0 15;
#X msg 218 265 \$1 0.2 \, 0 \$2 0.2;
#X connect 0 0 9 0;
#X connect 0 0 9 1;
#X connect 1 0 7 0;
#X connect 3 0 7 2;
#X connect 4 0 15 1;
#X connect 5 0 6 0;
#X connect 6 0 8 0;
#X connect 7 0 2 0;
#X connect 8 0 7 1;
#X connect 9 0 10 0;
#X connect 9 0 10 1;
#X connect 10 0 7 3;
#X connect 11 0 12 0;
#X connect 12 0 13 0;
#X connect 13 0 14 0;
#X connect 14 0 15 0;
#X connect 15 0 16 0;
#X connect 16 0 0 0;
#X restore 121 246 pd op-2;
#X obj 39 88 s \$0-trig;
#X obj 146 309 r \$0-trig;
#X obj 267 144 r \$0-mod;
#X obj 267 168 clip 0 1;
#X obj 121 270 *~, f 8;
#X obj 242 240 lop~ 20;
#X obj 244 215 sig~ 0.5;
#X obj 81 389 hip~ 5;
#X obj 39 44 t b a, f 15;
#X obj 141 79 s \$0-vel;
#X obj 81 365 *~ 0.75;
#X connect 0 0 14 0;
#X connect 3 0 4 0;
#X connect 3 0 5 0;
#X connect 4 0 16 0;
#X connect 5 0 10 0;
#X connect 7 0 4 2;
#X connect 8 0 9 0;
#X connect 9 0 12 0;
#X connect 10 0 4 1;
#X connect 11 0 10 1;
#X connect 12 0 11 0;
#X connect 13 0 2 0;
#X connect 14 0 6 0;
#X connect 14 1 15 0;
#X connect 16 0 13 0;
#X restore 95 203 pd root;
#X obj 241 113 s \$0-ratio;
#X obj 65 73 s \$0-pitch;
#X obj 126 109 s \$0-decay1;
#X obj 156 73 s \$0-decay2;
#X obj 258 89 s \$0-mod;
#X obj 331 96 s \$0-pDepth;
#X obj 24 43 route note pitch decay1 decay2 ratio mod pDepth pEnv;
#X obj 343 71 s \$0-pEnv;
#X connect 0 0 11 0;
#X connect 1 1 2 0;
#X connect 2 1 4 0;
#X connect 4 0 3 0;
#X connect 11 0 1 0;
#X connect 11 1 6 0;
#X connect 11 2 7 0;
#X connect 11 3 8 0;
#X connect 11 4 5 0;
#X connect 11 5 9 0;
#X connect 11 6 10 0;
#X connect 11 7 12 0;
