#N canvas 632 319 467 478 12;
#X obj 24 19 inlet;
#X obj 24 97 unpack;
#X obj 64 268 outlet~;
#N canvas 352 133 752 598 drum 1;
#X obj 27 25 inlet;
#X text 76 24 trigger;
#X obj 69 407 *~, f 13;
#X text 326 270 amplitude;
#X obj 69 235 +~, f 12;
#X obj 69 379 *~ 0.5;
#X obj 191 529 hip~ 5;
#X obj 191 553 outlet~;
#X obj 44 128 r \$0-hz;
#X obj 203 156 r \$0-depth;
#X obj 226 186 r \$0-att;
#X obj 280 216 r \$0-dec;
#X obj 488 80 inlet;
#X text 532 76 duck;
#X obj 488 104 t b b;
#X obj 146 108 vline~;
#X obj 146 132 pow~ 2;
#X obj 31 49 / 127;
#X obj 31 73 sqrt;
#X msg 172 307 \$1 \$2 \, 0 \$3 \$2;
#X obj 172 333 vline~;
#X obj 172 357 pow~ 2;
#X msg 459 178 0 3;
#X obj 44 152 lop~ 1000;
#X obj 25 315 osc~ 400;
#X obj 151 201 *~ 1000;
#X msg 145 65 \$1 3 \, 0.25 3 3 \, 0 5 8 \, 0.05 20 11;
#X obj 172 274 pack 1 3 300;
#X obj 89 317 osc~ 400;
#X obj 89 293 *~ 5;
#X obj 89 345 /~ 24;
#X obj 213 100 0.25;
#X obj 493 418 vline~;
#X obj 493 442 pow~ 2;
#X obj 392 393 r \$0-sub-hz;
#X obj 392 417 lop~ 1000;
#X obj 400 470 *~, f 15;
#X obj 493 355 del 100;
#X msg 531 310 stop;
#X obj 33 99 t b a b b;
#X obj 400 494 *~ 0.5;
#X obj 400 446 osc~ 400;
#X msg 493 389 1 20 \, 0 125 20;
#X obj 215 390 noise~;
#X obj 217 500 *~;
#X obj 306 399 vline~;
#X obj 252 335 t b b;
#X obj 215 414 *~ 0.5;
#X obj 217 477 vcf~ 5, f 12;
#X msg 308 369 1 1 \, 0 23 1;
#X obj 306 423 *~ 400;
#X obj 306 447 +~ 1000;
#X connect 0 0 17 0;
#X connect 2 0 6 0;
#X connect 4 0 24 0;
#X connect 4 0 29 0;
#X connect 5 0 2 0;
#X connect 6 0 7 0;
#X connect 8 0 23 0;
#X connect 9 0 25 1;
#X connect 10 0 27 1;
#X connect 11 0 27 2;
#X connect 12 0 14 0;
#X connect 14 0 22 0;
#X connect 15 0 16 0;
#X connect 16 0 25 0;
#X connect 17 0 18 0;
#X connect 18 0 39 0;
#X connect 19 0 20 0;
#X connect 20 0 21 0;
#X connect 21 0 2 1;
#X connect 22 0 20 0;
#X connect 23 0 4 0;
#X connect 24 0 5 0;
#X connect 25 0 4 1;
#X connect 26 0 15 0;
#X connect 27 0 19 0;
#X connect 28 0 30 0;
#X connect 29 0 28 0;
#X connect 30 0 5 0;
#X connect 31 0 24 1;
#X connect 31 0 28 1;
#X connect 31 0 41 1;
#X connect 32 0 33 0;
#X connect 33 0 36 1;
#X connect 34 0 35 0;
#X connect 35 0 41 0;
#X connect 36 0 40 0;
#X connect 37 0 42 0;
#X connect 38 0 37 0;
#X connect 39 0 27 0;
#X connect 39 1 26 0;
#X connect 39 2 31 0;
#X connect 39 3 38 0;
#X connect 39 3 37 0;
#X connect 39 3 46 0;
#X connect 40 0 6 0;
#X connect 41 0 36 0;
#X connect 42 0 32 0;
#X connect 43 0 47 0;
#X connect 44 0 5 0;
#X connect 45 0 44 1;
#X connect 45 0 50 0;
#X connect 46 1 49 0;
#X connect 47 0 48 0;
#X connect 48 0 44 0;
#X connect 49 0 45 0;
#X connect 50 0 51 0;
#X connect 51 0 48 1;
#X restore 64 185 pd drum;
#X obj 74 70 s \$0-hz;
#X obj 161 131 s \$0-depth;
#X obj 226 186 s \$0-att;
#X obj 270 105 s \$0-dec;
#X obj 63 128 sel -1 0;
#X obj 24 43 route note pitch depth att dec sub, f 47;
#X obj 341 101 s \$0-sub-hz;
#X connect 0 0 9 0;
#X connect 1 1 8 0;
#X connect 3 0 2 0;
#X connect 8 0 3 1;
#X connect 8 2 3 0;
#X connect 9 0 1 0;
#X connect 9 1 4 0;
#X connect 9 2 5 0;
#X connect 9 3 6 0;
#X connect 9 4 7 0;
#X connect 9 5 10 0;
