#N canvas 632 319 467 478 12;
#X obj 24 19 inlet;
#X obj 24 97 unpack;
#X obj 64 268 outlet~;
#N canvas 352 133 752 598 drum 1;
#X obj 27 25 inlet;
#X text 76 24 trigger;
#X obj 69 407 *~, f 13;
#X text 326 270 amplitude;
#X obj 69 235 +~, f 12;
#X obj 69 287 *~ 0.5;
#X obj 69 451 hip~ 5;
#X obj 69 475 outlet~;
#X obj 44 128 r \$0-hz;
#X obj 203 156 r \$0-depth;
#X obj 226 186 r \$0-att;
#X obj 280 216 r \$0-dec;
#X obj 488 80 inlet;
#X text 532 76 duck;
#X obj 488 104 t b b;
#X obj 146 108 vline~;
#X obj 146 132 pow~ 2;
#X obj 31 49 / 127;
#X obj 31 73 sqrt;
#X msg 172 307 \$1 \$2 \, 0 \$3 \$2;
#X obj 172 333 vline~;
#X obj 172 357 pow~ 2;
#X msg 459 178 0 3;
#X obj 44 152 lop~ 1000;
#X obj 69 263 osc~ 400;
#X obj 33 99 t b a;
#X obj 172 274 pack 1 3 450;
#X obj 151 201 *~ 1000;
#X msg 145 65 \$1 3 \, 0.25 3 3 \, 0 5 8 \, 0.05 20 11;
#X connect 0 0 17 0;
#X connect 2 0 6 0;
#X connect 4 0 24 0;
#X connect 5 0 2 0;
#X connect 6 0 7 0;
#X connect 8 0 23 0;
#X connect 9 0 27 1;
#X connect 10 0 26 1;
#X connect 11 0 26 2;
#X connect 12 0 14 0;
#X connect 14 0 22 0;
#X connect 15 0 16 0;
#X connect 16 0 27 0;
#X connect 17 0 18 0;
#X connect 18 0 25 0;
#X connect 19 0 20 0;
#X connect 20 0 21 0;
#X connect 21 0 2 1;
#X connect 22 0 20 0;
#X connect 23 0 4 0;
#X connect 24 0 5 0;
#X connect 25 0 26 0;
#X connect 25 1 28 0;
#X connect 26 0 19 0;
#X connect 27 0 4 1;
#X connect 28 0 15 0;
#X restore 64 185 pd drum;
#X obj 74 70 s \$0-hz;
#X obj 161 131 s \$0-depth;
#X obj 226 186 s \$0-att;
#X obj 270 105 s \$0-dec;
#X obj 24 43 route note pitch depth att dec, f 47;
#X obj 63 128 sel -1 0;
#X connect 0 0 8 0;
#X connect 1 1 9 0;
#X connect 3 0 2 0;
#X connect 8 0 1 0;
#X connect 8 1 4 0;
#X connect 8 2 5 0;
#X connect 8 3 6 0;
#X connect 8 4 7 0;
#X connect 9 0 3 1;
#X connect 9 2 3 0;
