#N canvas 401 138 703 508 12;
#X obj 24 19 inlet;
#X obj 24 43 route note pitch tempo;
#X obj 74 70 s \$0-pitch;
#X obj 24 97 unpack;
#X obj 63 136 sel 0;
#X obj 95 417 outlet~;
#N canvas 0 25 633 514 root 0;
#X obj 113 160 r \$0-pitch;
#X obj 113 311 osc~ 35;
#X obj 95 373 *~;
#X obj 21 175 clip~ 0 1;
#X obj 113 345 *~ 0.75;
#X obj 95 129 j-line-tempo~ 2 120;
#X obj 96 17 inlet;
#X text 147 21 trigger;
#X obj 95 397 outlet~;
#X obj 96 41 t b b;
#X obj 253 161 j-line-tempo~ 2 120;
#X obj 253 185 *~ 450;
#X obj 113 214 lop~ 10;
#X obj 113 278 +~;
#X obj 113 184 sig~ 35;
#X msg 253 124 1 0.001 0 \, 0 0.05 0.001;
#X msg 95 92 1 0.01 0 \, 0.25 0.25 0.01 \, 0 1 0.26;
#X connect 0 0 14 0;
#X connect 1 0 4 0;
#X connect 2 0 8 0;
#X connect 3 0 2 0;
#X connect 4 0 2 1;
#X connect 5 0 3 0;
#X connect 6 0 9 0;
#X connect 9 0 16 0;
#X connect 9 1 15 0;
#X connect 10 0 11 0;
#X connect 11 0 13 1;
#X connect 12 0 13 0;
#X connect 13 0 1 0;
#X connect 14 0 12 0;
#X connect 15 0 10 0;
#X connect 16 0 5 0;
#X restore 95 203 pd root;
#X obj 95 169 t b b;
#N canvas 0 25 633 514 (subpatch) 0;
#X obj 113 160 r \$0-pitch;
#X obj 113 311 osc~ 35;
#X obj 95 373 *~;
#X obj 21 175 clip~ 0 1;
#X obj 96 17 inlet;
#X text 147 21 trigger;
#X obj 95 397 outlet~;
#X obj 96 41 t b b;
#X obj 253 161 j-line-tempo~ 2 120;
#X msg 253 124 1 0.01 0 \, 0 0.15 0.01;
#X obj 113 214 lop~ 10;
#X obj 113 278 +~;
#X obj 113 184 sig~ 35;
#X obj 113 238 *~ 5;
#X msg 95 92 1 0.01 0 \, 0.25 0.15 0.01 \, 0 1 0.16;
#X obj 253 185 *~ 100;
#X obj 112 345 *~ 0.1;
#X obj 95 129 j-line-tempo~ 2 240;
#X connect 0 0 12 0;
#X connect 1 0 16 0;
#X connect 2 0 6 0;
#X connect 3 0 2 0;
#X connect 4 0 7 0;
#X connect 7 0 14 0;
#X connect 7 1 9 0;
#X connect 8 0 15 0;
#X connect 9 0 8 0;
#X connect 10 0 13 0;
#X connect 11 0 1 0;
#X connect 12 0 10 0;
#X connect 13 0 11 0;
#X connect 14 0 17 0;
#X connect 15 0 11 1;
#X connect 16 0 2 1;
#X connect 17 0 3 0;
#X restore 161 205 pd 2;
#X connect 0 0 1 0;
#X connect 1 0 3 0;
#X connect 1 1 2 0;
#X connect 3 1 4 0;
#X connect 4 1 7 0;
#X connect 6 0 5 0;
#X connect 7 0 6 0;
#X connect 7 1 8 0;
#X connect 8 0 5 0;
